/* XPM */
static char *e9c654bf614a483fb27873ad70153b236XPL5PnSrxkNyrgd[] = {
/* columns rows colors chars-per-pixel */
"50 50 156 2 ",
"   c #192F56",
".  c #1A3057",
"X  c #17345D",
"o  c #1C345C",
"O  c #1A385F",
"+  c #20355F",
"@  c #173461",
"#  c #1D3563",
"$  c #1D3A64",
"%  c #1E3668",
"&  c #1E3B6B",
"*  c #1E3D72",
"=  c #213663",
"-  c #213965",
";  c #223769",
":  c #223C6C",
">  c #243E72",
",  c #293E73",
"<  c #253F79",
"1  c #293F78",
"2  c #1F4175",
"3  c #1F4378",
"4  c #24406E",
"5  c #28406E",
"6  c #244274",
"7  c #294374",
"8  c #284877",
"9  c #26477C",
"0  c #24477D",
"q  c #25447A",
"w  c #284179",
"e  c #294278",
"r  c #284378",
"t  c #2A4379",
"y  c #28417A",
"u  c #2B417A",
"i  c #28437A",
"p  c #2A437B",
"a  c #2C4178",
"s  c #2D4279",
"d  c #2C4379",
"f  c #2E437A",
"g  c #294479",
"h  c #284678",
"j  c #294779",
"k  c #2B447A",
"l  c #2A457A",
"z  c #29477B",
"x  c #2B467B",
"c  c #29437C",
"v  c #2A437C",
"b  c #2B447C",
"n  c #2A457C",
"m  c #2A447D",
"M  c #2B447D",
"N  c #28467C",
"B  c #2B467D",
"V  c #2B457E",
"C  c #2A447F",
"Z  c #28477E",
"A  c #2C457D",
"S  c #2C457E",
"D  c #2D467E",
"F  c #2C477E",
"G  c #2A457B",
"H  c #27487E",
"J  c #26497F",
"K  c #25487E",
"L  c #284879",
"P  c #2B4A79",
"I  c #28487B",
"U  c #2A487A",
"Y  c #284A7A",
"T  c #2A4A7B",
"R  c #28497C",
"E  c #29497C",
"W  c #2A487C",
"Q  c #294A7D",
"!  c #2A4A7D",
"~  c #29487E",
"^  c #28497E",
"/  c #28497F",
"(  c #2A497F",
")  c #2B497F",
"_  c #294A7F",
"`  c #2D4B7F",
"'  c #2B4C7F",
"]  c #2A497D",
"[  c #314B7E",
"{  c #274480",
"}  c #274581",
"|  c #2B4580",
" . c #294680",
".. c #2A4781",
"X. c #2B4582",
"o. c #2A4685",
"O. c #2B4786",
"+. c #2D4784",
"@. c #294683",
"#. c #274A80",
"$. c #264B83",
"%. c #2A4980",
"&. c #2A4B80",
"*. c #2B4A81",
"=. c #2B4A83",
"-. c #2E4881",
";. c #2D4B81",
":. c #2C4983",
">. c #2D4C83",
",. c #2C4985",
"<. c #2F4984",
"1. c #2D4A86",
"2. c #2F4E84",
"3. c #2F4C86",
"4. c #2E4E87",
"5. c #2B4C83",
"6. c #29478D",
"7. c #264D89",
"8. c #2E4C88",
"9. c #2C4D8A",
"0. c #314F83",
"q. c #324B84",
"w. c #354E87",
"e. c #314D83",
"r. c #314B88",
"t. c #304E8A",
"y. c #354D89",
"u. c #304E8E",
"i. c #255085",
"p. c #2C5186",
"a. c #27518D",
"s. c #2D528B",
"d. c #315087",
"f. c #315186",
"g. c #325188",
"h. c #33528B",
"j. c #34518B",
"k. c #33538C",
"l. c #31548B",
"z. c #33598E",
"x. c #2E4D91",
"c. c #314F91",
"v. c #2E5492",
"b. c #2E5993",
"n. c #325593",
"m. c #385591",
"M. c #335994",
"N. c #385C95",
"B. c #345698",
"V. c #365C9A",
"C. c #395D9B",
"Z. c #3C619D",
"A. c #3B5EA0",
"S. c #3D63A1",
"D. c #40649E",
"F. c #426AA6",
/* pixels */
"$ X X O $ O 4 O & : : 6 7 > > ; * 4 6 8 6 3 8 L g g q < < c n A _ g q 6 6 2 > * > > : : ; : : 5 # $ ",
"$ O O O 4 4 4 $ 6 : : & : ; , > 6 6 8 6 6 6 6 Y 6 > > > < c A A ;.g q 6 * & & & 6 6 : & : : 6 7 : : ",
"$ O O O 4 4 4 $ : & & ; > > 6 p 6 Y Y 6 6 6 g ` > > 6 w w p n n *.0 6 * & * & 6 6 > & & ; 5 a , : : ",
"O O $ 4 4 4 4 $ & ; > 6 p p p p 6 6 Y 8 8 8 ' 0.q q n n q w < w w q * * > > < g r : % : , , , ; : - ",
"O O O 4 4 4 $ $ : : 6 8 g n g q Y Y _ Y q 8 *.2.w n n c w < < w p w > w < , p p , : ; , , , ; = 4 4 ",
"$ O $ $ O 4 4 4 6 6 : > 6 6 g Y Q J Q K q 6 q _ q 0 c c w < y { -.;.| n c p > < , , , , , , = + : - ",
"4 O $ $ $ 4 4 4 8 6 6 6 > q q q Y K &._ q q _ *.0 @.:.*.y y @.+.y.q.-.c p > , , , 1 , , , , ; , : : ",
"4 4 4 $ $ 4 2 8 8 q n _ 0 q q 2 * 2 K _ K _ >.d.d.h.k.8.} { +.r.y.q.A p < 1 d d d 1 f , : , , f 7 6 ",
"O O $ 4 4 & 6 P P 6 6 Y Q Y q 0 3 0 #.#.0 *.t.k.;.8.9.8.:.O.O.O.@.M c p c A c c , p d 1 > ; , 7 5 4 ",
"O o $ 4 6 : 6 8 6 2 2 Y J J 0 0 3 q *.#.0 0 2.k.y } } @.O.9.m.m.*.@.A | q.q.q.q.< < , , ; : : , % $ ",
"$ # X & 4 4 6 8 2 2 2 0 &.#.#.#.3 7.s.2.*.$.8.n.9.8.@.@.6.9.9.u.@.{ y } n | ;.;.A p > > 1 1 f 6 & & ",
": $ $ - : 4 6 2 0 Y Y K J p.i.p.p.s.t.s.s.9.s.m.M.u.O.@.o.o.o.} @.q 3 q y 0 c y q.;.A f d A f P Y 8 ",
": : 4 : : 4 6 4 Q K Y 3 K i.i.i.s.s.5.7.n.m.s.s.9.6.o.O.9.c.6.O.g.5.} &.2.n 0 *.| ;.;.q > * 6 q q 8 ",
"4 5 6 5 & 6 6 2 q Y 3 3 3 i.p.i.l.a.$.5.9.n.x.8.O.O.6.6.c.c.c.u.n.s.5.8.8.@.0 &.n *.;.q * & * q 8 6 ",
"$ , 7 : & & 6 q 6 Y Y 0 i.p.i.$.s.7.9.a.s.v.v.n.v.c.u.9.6.9.u.u.M.8.5.s.s.#.K p.*.&._ 0 q w q _ 8 8 ",
"@ : 7 4 $ & 6 Y J p.p.i.p.p.p.i.7.s.M.n.s.x.n.C.9.x.c.u.9.u.c.M.M.s.i.l.l.5.&.s.*.q q q g _ _ K 6 6 ",
"4 4 4 $ & 4 Y 8 Y Y 0 Y #.p.p.K p.s.b.s.7.O.v.B.c.6.B.B.V.7.v.B.7.7.5.7.5.s.s.2.0 g.q *.*.w p.6 7 7 ",
"4 2 4 $ 2 6 Y Y 2 q 3 3 0 #.p.Y i.s.z.b.n.9.c.n.c.6.B.x.A.v.b.v.7.5.7.#.$.5.7.} _ 2.0 0 0 q _ > 6 s ",
"X $ 2 4 & 4 4 2 K Q K K J p.p.p.i.i.b.z.B.M.c.x.x.6.x.B.S.b.b.a.n.l.7.5.7.s.2.*.*.#.e.0 q *.2 * 6 6 ",
"X $ $ 4 2 2 2 4 ' p.&.&.&.p.l.z.i.a.s.s.n.B.B.x.x.x.x.B.V.V.b.a.M.N.M.s.s.k.s.s.*.q g.w q 2.* 6 2 4 ",
"4 $ 2 2 6 6 6 2 P _ q K *.&.p.s.p.s.a.i.s.V.B.x.n.B.B.B.B.b.v.v.a.l.M.s.$.7.2.p.&.q g.y q g.6 q Y 8 ",
"4 4 4 8 8 6 6 8 L Y q _ K K &.s.s.p.i.3 7.M.n.x.B.A.B.B.a.B.v.b.5.s.n.s.5.5.5.a.*.K ;.0 0 p.K q 6 8 ",
"4 4 4 4 4 & 6 g _ L _ >.5.&.2.l.z.z.z.i.7.n.n.v.B.A.n.V.v.S.b.v.s.l.n.k.s.n.s.*.#.p.n q q q ;.6 & & ",
"4 4 4 8 6 4 6 L L g _ >.5.*.5.g.i.z.s.i.5.n.M.v.B.A.v.C.M.F.M.a.n.l.a.s.l.n.p.q 5.l.q q q * >.6 & 4 ",
"X $ 5 4 8 P g 8 q 6 * q q } 2.z.p.p.s.p.7.a.b.Z.C.B.b.V.C.M.B.Z.l.N.N.s.7.z.M.l.k.*.w 0 0 6 q >.2 & ",
"$ $ : : : 8 g 6 q 6 6 q *.*.2.l.f.z.z.s.s.b.Z.S.S.A.V.Z.C.C.Z.Z.z.Z.M.2.$.8.g.s.g.0 0 *.*.q q n 4 : ",
"$ : : & : : h h 6 * w *.&.5.2.g.f.z.N.Z.M.b.b.Z.S.S.S.V.N.Z.Z.N.Z.D.N.8.@.a.k.g.*.q q 0 n q * 6 6 7 ",
"$ $ 4 : & : > h > 2 q *.2.*.2.g.f.z.z.z.s.z.b.Z.Z.S.V.b.M.N.N.g.Z.C.M.7.$.8.s.s.K q q n 0 q * 6 6 > ",
"- - : , ; ; > 6 > < 0 n _ @.0.l.f.f.z.i.p.a.b.Z.v.b.M.v.n.N.z.*.7.7.8.$.5.7.$.#.g.2.>.>.>.>._ ` : ; ",
": - ; > 6 : > : 6 w w _ n y ;.d.f.f.f.p.i.s.b.M.v.v.s.s.M.N.k.5.#.$.7.5.8.7.#.$.p.p.>.>.>.;._ g , ; ",
", = $ ; 5 6 > 6 > > n ;.n y Y &.f.[ z.p.s.b.b.b.b.a.7.a.M.n.8.5.s.5.a.k.n.s.7.#.n 0 _ n n 0 w * 7 , ",
"7 - # - > : 6 6 > 6 A 2.*.q q P f.f.f.z.s.b.a.b.b.7.$.a.l.s.5.s.z.s.8.s.s.2.q q q 0 _ *.*.0 6 ; : , ",
": 7 $ $ 4 6 4 5 0.L 6 > q n q q y 5.u.k.t.:.:.s.k.7.5.s.l.7.7.z.5.z.z.p.5.l.g.q q q p 6 p A , % ; ; ",
"- 5 : $ 5 6 6 4 6 8 8 q K _ n 0 1 } +.O.O.:.@.@.s.O.7.8.8.7.g.z.7.p.p.p.p.e.&.q 6 n f r , , > ; ; ; ",
"O 4 $ $ 6 5 & : & > q ` _ _ *.2.c c y 0 o.@.0 0 2.t.5.#.K p.s.s.3 Y J p.a._ q > 6 g ` p > > , , ; ; ",
"$ : $ : 5 6 : 5 & > w q n n _ @.c @.} } @.n n } 5.7.5.q K a.l.p.i.3 3 p.p.q * w q q g r , : , , ; - ",
"- 5 - - 5 : : P g 6 > * q q q * y @.@.n w w 0 ;.0 *.&.K K 5.5.0 p.3 * 5.5.q * 0 p > > 6 , a , 7 , ; ",
"= - # # : $ : 7 [ 6 * & > q > * > w n y q < 0 *.0 *.*.*.K *.K q p.q * n &.q q q r > : h f s , , ; : ",
". o o o - # # 6 7 h > & * * q * * 2 q q q q n *.;.n 0 n _ w q q >.q 2 0 &._ q 6 6 > 7 7 7 5 : , ; - ",
"o $ # - : - # 6 : 6 6 6 > 6 w 0 < * 6 w n 0 _ n e.0 w 0 q * * 0 _ q 6 0 2.&.8 > r 6 f [ 7 : ; : ; ; ",
"O + - + = - : 5 : : r g g h h r 6 Y q 6 0 0._ & _ [ L > * 8 r > 6 n _ g g [ ;.A f P h h : > : : = = ",
"o + + + - - 5 5 : : ; : 6 6 > > 6 P q 8 g 0.` > 8 ` _ > > f f 7 > q g 6 > 6 r 6 ; : : ; : : : : - = ",
"o + + - - - 5 5 : : : : : ; 6 > 8 P Y 6 8 L _ 6 > h 7 6 6 P [ P > < p > > > > & & % & & & : : : = - ",
". + + + - - : 5 : , : : 6 7 6 7 Y Y Y 2 > 6 h h 6 r r , r D [ P > p f p > : ; % ; : : > : & & $ - - ",
"o o + + + = - - = ; : 7 h 7 r 7 4 6 8 2 & 4 5 6 , 7 5 6 5 7 s s p d f f p , % : > 6 5 5 : : : $ - - ",
"o + + + o + o = # = : , r 7 6 5 2 2 4 4 & & 4 6 5 6 7 : , , , : > , a 7 > ; % & : & 4 5 : : : $ - : ",
". + + + + + # = # # ; : : ; ; & 2 $ 4 2 & 2 : 5 4 4 : , , ; ; ; : ; : a , % # % # & : 4 4 : : $ - - ",
". . + + = = = : = $ $ : : & % % & $ $ & 4 $ : : : : ; : : ; - : ; : ; 7 , ; % : = & - 4 4 : : $ O o ",
". . o . o o o O - + - + $ + + = # ; % ; : # > : : ; ; - : , , - ; ; , - = = ; : = + - : O + + O o o ",
". + o . o o o O - + - + + + + = # ; % : : # : ; : , : : ; 5 5 : - ; , : - = - ; = + - 4 O $ 4 O o o "
};
