/* XPM */
static char *e9c53fe21f3c43f8df370380d0b764d1KhlVJa0ywC5BtL5g[] = {
/* columns rows colors chars-per-pixel */
"50 50 209 2 ",
"   c None",
".  c #735F35",
"X  c #7D612E",
"o  c #766134",
"O  c #7B6433",
"+  c #756238",
"@  c #7B673B",
"#  c #7C693D",
"$  c #805F29",
"%  c #8E6223",
"&  c #82652E",
"*  c #8C6C2B",
"=  c #88662A",
"-  c #926624",
";  c #956926",
":  c #9A6D23",
">  c #966B29",
",  c #996E2B",
"<  c #8F712D",
"1  c #95732C",
"2  c #9D732C",
"3  c #9B7829",
"4  c #836A32",
"5  c #896932",
"6  c #8D733C",
"7  c #9E7531",
"8  c #9F7936",
"9  c #95783D",
"0  c #A37524",
"q  c #AC7D23",
"w  c #A2762A",
"e  c #A57A29",
"r  c #AA7E2B",
"t  c #A77924",
"y  c #A27631",
"u  c #A47C35",
"i  c #A77B34",
"p  c #816F41",
"a  c #847343",
"s  c #8B7847",
"d  c #8D7C49",
"f  c #927E49",
"g  c #AD8225",
"h  c #AF8927",
"j  c #AC842C",
"k  c #A48129",
"l  c #B38424",
"z  c #B58B25",
"x  c #BB8C24",
"c  c #B0852B",
"v  c #B68A2C",
"b  c #B88B28",
"n  c #BF9024",
"m  c #BB902F",
"M  c #AC8235",
"N  c #A7813B",
"B  c #AA843D",
"V  c #AE893E",
"C  c #B38634",
"Z  c #B48A33",
"A  c #BA8E33",
"S  c #B38B3B",
"D  c #B88A3C",
"F  c #B68738",
"G  c #BC9235",
"H  c #BC953B",
"J  c #C29424",
"K  c #C59824",
"L  c #CA9C24",
"P  c #C0942C",
"I  c #C89A29",
"U  c #C39A3D",
"Y  c #C59A35",
"T  c #CFA028",
"R  c #D3A625",
"E  c #CBA33A",
"W  c #D5AC38",
"Q  c #DDB63A",
"!  c #9D854A",
"~  c #968650",
"^  c #9C8D54",
"/  c #9A8957",
"(  c #AB8640",
")  c #AE8A42",
"_  c #A48747",
"`  c #B28E45",
"'  c #AF914C",
"]  c #B49146",
"[  c #BD9645",
"{  c #B5944A",
"}  c #BC954B",
"|  c #BB9A4D",
" . c #BB984A",
".. c #A38F56",
"X. c #AA9353",
"o. c #A5955A",
"O. c #A99B5E",
"+. c #BC9D52",
"@. c #BFA156",
"#. c #AE9E6E",
"$. c #AEA162",
"%. c #BAAE6B",
"&. c #B8A964",
"*. c #C39B44",
"=. c #C29A4B",
"-. c #C0974A",
";. c #C49C51",
":. c #C2A24E",
">. c #CAA54A",
",. c #CDA94D",
"<. c #C9A242",
"1. c #D2AB46",
"2. c #D4B04D",
"3. c #D8B345",
"4. c #C4A355",
"5. c #C8A354",
"6. c #C7A856",
"7. c #CBAA54",
"8. c #C2A55A",
"9. c #CAA658",
"0. c #C5AA5D",
"q. c #CBAB5B",
"w. c #CEB15D",
"e. c #D2B455",
"r. c #DCBC55",
"t. c #D2B35D",
"y. c #D8BB5F",
"u. c #E0BE52",
"i. c #C7AC60",
"p. c #CAAE62",
"a. c #D0AF60",
"s. c #CDB365",
"d. c #CEB668",
"f. c #CAB96F",
"g. c #D2B463",
"h. c #D5BA65",
"j. c #D9BD64",
"k. c #D1B668",
"l. c #D4BB6B",
"z. c #D8BE6C",
"x. c #C2B772",
"c. c #C5BA73",
"v. c #CBBE78",
"b. c #D6BE70",
"n. c #D4B474",
"m. c #DEC15B",
"M. c #DCC061",
"N. c #DAC16D",
"B. c #DFC96D",
"V. c #CBC179",
"C. c #D7C272",
"Z. c #DBC573",
"A. c #DEC976",
"S. c #DECA78",
"D. c #D7C57A",
"F. c #E1C76D",
"G. c #E3CC6C",
"H. c #E9CE61",
"J. c #F2DB6D",
"K. c #E2CC74",
"L. c #E1CD7A",
"P. c #E0C771",
"I. c #EAD474",
"U. c #E4D27D",
"Y. c #E9D77D",
"T. c #EBDA7D",
"R. c #E7D276",
"E. c #FAE77D",
"W. c #D5C88E",
"Q. c #DCD485",
"!. c #E4CE86",
"~. c #E6D581",
"^. c #E8D782",
"/. c #E5D884",
"(. c #EADB85",
"). c #E4DC8B",
"_. c #EBDD89",
"`. c #F1DE80",
"'. c #ECDD96",
"]. c #EEE28C",
"[. c #E7E08E",
"{. c #F1E58D",
"}. c #F4EA8D",
"|. c #F0E185",
" X c #F9F08F",
".X c #EBE592",
"XX c #EEE29D",
"oX c #F2E691",
"OX c #F4EC93",
"+X c #F7EA97",
"@X c #F7F097",
"#X c #F8F197",
"$X c #F7F199",
"%X c #F9F49B",
"&X c #FCF89F",
"*X c #DDD3AF",
"=X c #E4DAB0",
"-X c #F3E6A5",
";X c #FCEEAA",
":X c #F6E9A6",
">X c #FEFAA0",
",X c #F6EAB7",
"<X c #FBF1BE",
"1X c #F7EDCA",
"2X c #FAF2CD",
"3X c #FEF4C1",
"4X c #FDF6D3",
"5X c #FBF5DC",
"6X c #FFFAE4",
/* pixels */
"                                                                                                    ",
"                                                                                                    ",
"                                                                                                    ",
"                                                                                                    ",
"                                                                                                    ",
"                                                                                                    ",
"                            E.                                                                      ",
"                            @X                                                                      ",
"                            ;X          s a d ~ ^ ..^ ~ d a #                                       ",
"                            3X    s &.&.x.Q.].OX$X$X$X+X.XQ.c.#.d @                                 ",
"                            4X/ ^ v.}.OX@X@X%X#X%X%X%X>X&X&X&X&X.Xc.~ @                             ",
"                          *X5XW.XXoX].A.g.].@X%X$X%X%X%X%X@Xl.R.%X>X+Xc.d                           ",
"                        #.=X6X2XXX{.U.=.0./.OX}.@X%X#X}.@X_.w.[ U.>X%XoX).#.@                       ",
"                   X:X,X,X4X6X5X<X;XoXK.J.T.OX}.@X#X@X@X@X(.L.z.L.OXoXK.}.OX%.p                     ",
"                    ..D.-X,X4X1X-X_.L.Y.{.I.oX%X@XoXD.h.}.|.oX_.U.^._.g.].A._.c.p                   ",
"                  # X.C.).n.,X'.:Xb.;.L.[.].@X#XOXoX(.C.oX%X%X{.q.g.R.^.^.q.~.>Xc.#                 ",
"                # _ s.U.~.p.+XA.a.!.L.(.OX#X#X@XoX]._.^._.oXoX@XOXY.w.N.A.g.U.&XOX&.+               ",
"                s 0.N.s.z.g.`.g.k.!._.+X@X@XOXoX].[.(.L.A.b.C.C.(.%X].S.K.Z.Y._.L.@X/               ",
"              4 ( k.z.;.5.g.J.j.b.L.#X X@XOX}.].[._.U.L.C.l.s.0.| [.&X}.K.g.z.l.z.%XQ.a             ",
"            @ 6 ) d.z.4.Z.j.H.k.b._.%X#X}.}.]._.T.U.S.C.b.s.i.@.] q.%X%X|.h.^.L.C.$X%X$.            ",
"            @ 8 :.U.q.h.g.[ y.s.l.+X#X@XOXT.d./.^.S.S.@.i.i.8.+.] H }.%X+Xg.g.U.g.].}.).a           ",
"            5 u N.A.5.0.| +.y.8.l.OX@XOXOXC.h.].L.D.C.{ d.i.+.` B Z T.%X%X$X^.U.g.N.|.&Xo.          ",
"          @ = u L.g.k.=.B } 0.@.d.oXOXoX].A.8.U.S.C.d.{ S.@.( u N Z I.%X%X$Xg.4.K.g.{.&XV.#         ",
"          O % , l.g.-.w ( ] | +.0./.oX.X]./.C.C.C.l.s.] D.C.D.S.U./.OX$X$X%X].{ -.k.oX&X[.a         ",
"          . : i ] { ` | { ` ` | +.d._._.(.U.S.D.l.s.0.@.~..XoXoX}.OX@X@X@X$XOXY.l.U.oXL._.^         ",
"          & 2 ;.8.{ K.U.] N ) ` | @.d.^.^.S.Z.l.d.i.@.+.+.@.D.].OXoXOXOX@X@X@X|.U.L.U.;./.$.        ",
"        4 - w ` z.S.}.| 2 u B ) ' { +.+.l.D.C.d.i.0.+.' B u 2 ) U.oXoXoXOX@X@X@X+XU.L.[ ].%.        ",
"        @ > 0 e q.A.d.M w 7 u B ) ] } { ) { 6.0.@.+.` ( u 2 ; % N /.oX}.OXOXoXh.K.(.g.p.%Xx.#       ",
"        @ , =.9.| 6.h.7.> , 7 u N ) ` { +.|  .4.+.{ ) N 7 > % - : :.}.].oXOX}.I.k.U.L.{.}.x.#       ",
"        @ 2 7.U.e.w.U.) % > , 7 B ] +.+.] | @.+.| ) N c r % - : 0 v U.].{.oXoXOX(.L.I.L._.x.@       ",
"        @ 3 G ;.U [ ] ` N % > 8 l.^.S.d.+.{ +.` ) B y c :.y : 0 g x B.].].].{.(.(.K.1.5.}.&.        ",
"          3 P j.h.*.k./.| % % > @.A.f.d.i.( ) N ( u 1 c g.0.e q l n j.(._.].oX_.z.P.K.L.OX#.        ",
"          1 x >.M.r.Z.^.M - % - u d.d.p.@.{ Z 8 u 1 - c j.s.t l x L y.~.^._._.{.Z.r.j.L.+X^         ",
"          4 n P F *.N.7.e : : $ - | s.@.| { S j 2 > % A j.v l x K L g.L.~._.b.z.z.>.6.{.~.a         ",
"          @ z K J U :.-.-.e : - % m 6.@.{ ) N e > - - e q q x J L Y l.L.L.^.g.=.j.L.(.OXx.#         ",
"            3 T *.Y U [ h.A D : - 0 E  .) B 8 > - - : 0 q x J L J } C.A.K.L.A.;.g.q.j.].^           ",
"            4 K W 5.9.9.e.j.j.e : - t I S y , - % : 0 q z J K J ` s.b.b.A._.L.9.q.5.U.D.a           ",
"              k R ,.;.=.*.U.g.C t : - : z x q 1 - 0 q b x J G ] 0.s.l.k.h._.h.5.=.l._.o.            ",
"              4 J W N.a.F j.q.*.6.M u - % : Z 5.0 q x G A ] | 8.p.d.z.w.g.A.D t.K.L.f.#             ",
"                1 R u.k.D A P >.j.N.L.u 2 2 2 H x J J P V { +.;.U.D.z.k.q.=.D g.~.S.f               ",
"                O j r.B.B.3.U >.U.Z.{.5.S p.` - - , 2 u +.k.| q.{.Z.U.q.7.2.B.A.b...+               ",
"                  O z Q G.g.[ C e.y.(.z.5.K.Z.( % - > ` Z.L.q.z._.j.y.D [ t.L.A.X.@                 ",
"                    O n Q F.Y.u.E 7.7.7.*.A.R.` - % - ` R.L.| q.7.q.7.r.^.L.d.X.@                   ",
"                      O g R Q 1.6.C.U.l.*.[ *.Z 2 - , M *.*.*.h.L.z.9.6.p.0.! @                     ",
"                        o 3 T W m.K.G.K.h.=.*.m r V e C *.=.h.A.D.A.h.8.] s o                       ",
"                            4 h T T L 2.Z.^.u.b r w e w r.U.z.4.i V ( 9 @                           ",
"                              @ * j J L I Y z g t 0 : > ; y 8 2 7 5 O .                             ",
"                                  . 4 1 e c l l q t 2 : - $ X X .                                   ",
"                                          O O & & & X O o o                                         ",
"                                                                                                    "
};
