/* XPM */
static char *ZG9vcl9vcGVuLXJlbW92ZWJnLXByZXZpZXcrJTI4MSUyOQ__[] = {
/* columns rows colors chars-per-pixel */
"50 50 136 2 ",
"   c #000101",
".  c #050708",
"X  c #050809",
"o  c #0D0A0B",
"O  c #130E0D",
"+  c #17100F",
"@  c #1D140A",
"#  c #130F10",
"$  c #151010",
"%  c #1C1313",
"&  c #231609",
"*  c #2D1D0C",
"=  c #331F0B",
"-  c #231615",
";  c #261817",
":  c #2A1E11",
">  c #231A19",
",  c #2C1B1A",
"<  c #321E1D",
"1  c #35210B",
"2  c #3D260D",
"3  c #36201F",
"4  c #38211F",
"5  c #342322",
"6  c #3C2422",
"7  c #3D2A29",
"8  c #40260C",
"9  c #44290E",
"0  c #4D2E0E",
"q  c #52310F",
"w  c #4E2F10",
"e  c #533210",
"r  c #5C3610",
"t  c #61380F",
"y  c #633A11",
"u  c #6A3E11",
"i  c #412724",
"p  c #452926",
"a  c #442E2D",
"s  c #492C29",
"d  c #45302F",
"f  c #4A312E",
"g  c #54322E",
"h  c #4C3230",
"j  c #533431",
"k  c #5C3632",
"l  c #5C3936",
"z  c #603733",
"x  c #623A36",
"c  c #643D39",
"v  c #683F3B",
"b  c #6F4011",
"n  c #744313",
"m  c #794613",
"M  c #7F4A15",
"N  c #66403D",
"B  c #69403D",
"V  c #6D4440",
"C  c #6C4441",
"Z  c #6E4541",
"A  c #6C4441",
"S  c #6F4946",
"D  c #734B48",
"F  c #714C49",
"G  c #814B14",
"H  c #804B16",
"J  c #804B17",
"K  c #814C16",
"L  c #814C17",
"P  c #824C16",
"I  c #834C16",
"U  c #844D16",
"Y  c #854D16",
"T  c #874F17",
"R  c #814C16",
"E  c #884D13",
"W  c #884E15",
"Q  c #8B4F14",
"!  c #894F16",
"~  c #834E19",
"^  c #8A5017",
"/  c #8B5117",
"(  c #8E5115",
")  c #8D5116",
"_  c #8F5317",
"`  c #8C5117",
"'  c #84511D",
"]  c #8B5219",
"[  c #8C5218",
"{  c #905317",
"}  c #915417",
"|  c #965515",
" . c #945517",
".. c #975717",
"X. c #905317",
"o. c #985717",
"O. c #995817",
"+. c #9A5817",
"@. c #9A5917",
"#. c #995817",
"$. c #9B5918",
"%. c #A05B16",
"&. c #A35D16",
"*. c #A85F17",
"=. c #A05C18",
"-. c #A25D18",
";. c #A35D18",
":. c #A45D18",
">. c #A45E18",
",. c #A55E18",
"<. c #A65F18",
"1. c #A75F18",
"2. c #A45E18",
"3. c #AC6117",
"4. c #A86018",
"5. c #AA6118",
"6. c #AB6118",
"7. c #AC6218",
"8. c #AF6318",
"9. c #AF6418",
"0. c #AD6218",
"q. c #B36519",
"w. c #B66719",
"e. c #B76719",
"r. c #B36519",
"t. c #B96819",
"y. c #BA6919",
"u. c #BB6919",
"i. c #BB6A19",
"p. c #BC6A19",
"a. c #BE6B19",
"s. c #BF6C19",
"d. c #BB6919",
"f. c #C06C1A",
"g. c None",
"h. c black",
/* pixels */
"g.g.g.g.g.g.g.g.g.g.g.g.g.g.; o X O + + % O . o O g.g.g.g.g.g.g.g.g.g.g.g.g.g.g.g.g.g.g.g.g.g.g.g.g.",
"g.g.g.g.g.g.g.g.g.g.g.g.k v c , - k k k l k % 6 6 - - g.g.g.g.g.g.g.g.g.g.g.g.g.g.g.g.g.g.g.g.g.g.g.",
"g.g.g.g.g.g.g.g.g.g.; 5 5 c C 3 - c v c D v % 6 x s < , ; g.g.g.g.g.g.g.g.g.g.g.g.g.g.g.g.g.g.g.g.g.",
"g.g.g.g.g.g.g.X o a x v p 5 5 $ O , 5 < 5 , o % , < p v v < X o g.g.g.g.g.g.g.g.g.g.g.g.g.g.g.g.g.g.",
"g.g.g.g.g.g.; i 6 5 k k < o                       o 4 x l < 6 h > g.g.g.g.g.g.g.L U Y Y L g.g.g.g.g.",
"g.g.g.g.g.; j C g 6 % O                             . O % 6 j v s , g.g.g.= M T L 4.6.8. .L ' g.g.g.",
"g.g.g.> i 6 3 i O o                                       O O i - 5 5 + 2 n } 6.^ 9.p.i.@.Y [ [ ~ g.",
"g.g.% 7 s i , .                                               . . @ y ^ ~ _ q.q.^ 9.i.i.@. .e.4.L L ",
"g.X p 6 ; %                                                       e $.u.4.] t.q.! 3.u.p.@.@.p.6.L G ",
"g.X s B v 3                                                       e >.p.<.} t.q._ r.u.t.+.@.i.6.L G ",
"g.. % g c <                                                     . e -.p.<.X.i.q.! 8.t.i. .@.i.6.L J ",
"g.. 3 , - #                                                       e -.p.<.[ t.r.[ 8.i.i.@.@.i.6.L G ",
"g.. s k j , .                                                   . e -.p.<.{ t.r.^ 8.i.t.+. .p.6.L G ",
"g.. 3 j j ;                                                       e -.p.<.{ t.r.^ r.t.i.+.@.i.6.~ G ",
"g.. - , ; O                                                     . 1 { p.=.{ t.r.! 3.p.u.@.@.i.6.G J ",
"g.. h C v 4                                                         = Q <.{ t.r._ r.u.u. .+.i.6.L G ",
"g.. p v v 3                                                       . . & y _ t.q.^ 3.i.i.@.+.i.6.~ J ",
"g.. i 5 - #                                                       . 0 E M _ t.q.^ r.t.i.@.@.i.6.G M ",
"g.. % f k , .                                                   . 9 $.f.<._ t.q.! 3.p.u.+. .i.6.~ M ",
"g.. 6 x C 7                                                       e -.p.<._ t.r._ r.u.u.+.+.i.6.J G ",
"g.. , i g 5                                                       e -.p.<.{ t.q.! 8.p.u.+.+.i.6.L G ",
"g.. - 5 5 %                                                     . e -.p.<.{ t.q.[ 8.t.p.+.+.i.6.L G ",
"h.. p v g %                                                       e =.p.<._ t.q.^ 8.i.t.+.+.i.6.L J ",
"h.. i k x 5                                                       e =.p.:._ t.q.^ r.t.i. .@.i.6.L J ",
"h.. + - i <                                                     . e -.i.<._ t.q._ 8.u.u.+.+.u.5.Y G ",
"g.. i g < +                                                       e -.i.<._ t.q.^ 8.u.%.m { u.5.~ M ",
"g.. p x x <                                                       q -.p.<.{ t.q.^ 3.u.b & 1  .5.G J ",
"g.. , 4 5 -                                                     . e -.p.-.{ t.q._ 9.u.u.q & m 8.G J ",
"g.. ; 3 < -                                                     . q -.p.:.{ i.q.^ 9.u.m & q p.3.~ J ",
"g.. s x x 6                                                       q -.p.:.{ t.q.^ 3.t t y 0 u 3.G G ",
"g.. j v j <                                                     . q :.u.:.{ u.9._ 3.8 n { 9 0 6.G J ",
"g.. d 5 - O                                                       9 @.f.:.{ u.9.^ 3.*.t = r *.8.L J ",
"g.. % p k <                                                       . 0 &.*.X.i.q.[ 8.p.r.Q  .p.8.G G ",
"g.. p x B 5 .                                                   .   . = n { t.q.! 8.t.i.+.+.p.*.~ J ",
"g.. - < l d                                                     .   1 r u [ t.q.[ 8.t.p.O.O.i.6.G M ",
"g.. , 6 5 %                                                       1 ( f.<._ t.q.^ r.i.t.O.O.i.6.~ G ",
"g.. s v g , .                                                     e -.p.<.{ t.q.! 8.u.u.O.O.i.6.L G ",
"g.. 6 l k ,                       .                             . e -.p.<.{ t.q.^ r.u.u.O.O.i.6.L G ",
"g.. + - - O           O % % + % % % % % % % .   o % % % % +       e -.i.<._ t.q.[ 8.t.p.O.O.i.6.L G ",
"g.. p k k < .     . - g k k x v A F S A F B 3 - < 4 p v S j O % o e -.i.<._ t.q.! 8.i.i.O.O.i.6.L G ",
"g.  - g x < O , < < < < 3 < 6 7 a 6 6 z B D Z v p < < 5 a g # j % q -.p.4.} e.r.[ 8.u.u.O.O.p.*.L G ",
"g.. 5 5 , O - v B l h 5 5 6 6 6 4 5 5 , ; 5 5 , , , % O < - o j % e -.p.-.] u.r.^ 8.p.t.O.O.i.8.L G ",
"g.. g j p - - k x k c k N c v c k k g i i i 6 i 6 i 6 5 %     $ o e -.i.<.] u.r._ 8.i.p.O.O.i.*.L G ",
"g.. a k g < . O O O O O $ O $ O O O O O O O O O O O # o   . . . . 9 n  .-.} u.r.! 8.i.t.O.O.i.8.L G ",
"g.o o $ # o X X X X X X . . . . X X X X X X X X . . X X X X X X . o O 8 b ] r.r.^ 8.u.p.O.O.i.*.L L ",
"g.g.g.g.g.g.g.g.g.g.g.g.g.g.g.g.g.g.g.g.g.g.g.g.g.g.g.g.g.g.g.g.g.g.g.g.1 e u $.^ r.u.t.O.O.i.8.L L ",
"g.g.g.g.g.g.g.g.g.g.g.g.g.g.g.g.g.g.g.g.g.g.g.g.g.g.g.g.g.g.g.g.g.g.g.g.g.X O 9 w :.p.i.O.O.i.*.L L ",
"g.g.g.g.g.g.g.g.g.g.g.g.g.g.g.g.g.g.g.g.g.g.g.g.g.g.g.g.g.g.g.g.g.g.g.g.g.g.g.g.g.w e M ^ O.u.6.L M ",
"g.g.g.g.g.g.g.g.g.g.g.g.g.g.g.g.g.g.g.g.g.g.g.g.g.g.g.g.g.g.g.g.g.g.g.g.g.g.g.g.g.g.g.: * e ^ Y m m ",
"g.g.g.g.g.g.g.g.g.g.g.g.g.g.g.g.g.g.g.g.g.g.g.g.g.g.g.g.g.g.g.g.g.g.g.g.g.g.g.g.g.g.g.g.g.@ @ @ & @ "
};
