/* XPM */
static char *ZG9vcl9jbG9zZS1yZW1vdmViZy1wcmV2aWV3KyUyODElMjk_[] = {
/* columns rows colors chars-per-pixel */
"50 50 131 2 ",
"   c #060404",
".  c #0A0606",
"X  c #0E0807",
"o  c #0F0808",
"O  c #130B05",
"+  c #180E07",
"@  c #120A09",
"#  c #1A0E0C",
"$  c #1B1006",
"%  c #1E110C",
"&  c #1C1111",
"*  c #24130D",
"=  c #29170C",
"-  c #2B190B",
";  c #331E0B",
":  c #241412",
">  c #2B1611",
",  c #2E1814",
"<  c #251718",
"1  c #2B1A1A",
"2  c #331A14",
"3  c #3A1D17",
"4  c #321D1B",
"5  c #3D1F19",
"6  c #37210B",
"7  c #3D240C",
"8  c #36201F",
"9  c #3D211D",
"0  c #352121",
"q  c #3B2423",
"w  c #3F2828",
"e  c #401F18",
"r  c #472A0E",
"t  c #4A2C0E",
"y  c #502F0F",
"u  c #52310F",
"i  c #43211A",
"p  c #49251D",
"a  c #533110",
"s  c #5B3611",
"d  c #653C13",
"f  c #6A3F14",
"g  c #452622",
"h  c #492721",
"j  c #462826",
"k  c #4D2822",
"l  c #452A2A",
"z  c #4E2E2C",
"x  c #522B24",
"c  c #562E29",
"v  c #57302A",
"b  c #5C332D",
"n  c #4E3131",
"m  c #543333",
"M  c #5E3633",
"N  c #5F3B3A",
"B  c #623732",
"V  c #623733",
"C  c #613632",
"Z  c #613733",
"A  c #623935",
"S  c #653A35",
"D  c #663A35",
"F  c #643D3D",
"G  c #623C3A",
"H  c #683C38",
"J  c #693E3B",
"K  c #6A3F3C",
"L  c #6A3F3B",
"P  c #6E4115",
"I  c #6F4114",
"U  c #704214",
"Y  c #714315",
"T  c #724315",
"R  c #734415",
"E  c #744515",
"W  c #724415",
"Q  c #784716",
"!  c #794716",
"~  c #7C4917",
"^  c #7D4A17",
"/  c #7C4917",
"(  c #68403F",
")  c #6C413F",
"_  c #6E413F",
"`  c #6D413E",
"'  c #70423F",
"]  c #71433F",
"[  c #674040",
"{  c #694141",
"}  c #6A4241",
"|  c #754643",
" . c #724847",
".. c #7B4C4C",
"X. c #7B4C4C",
"o. c #824D18",
"O. c #834D18",
"+. c #844E19",
"@. c #885019",
"#. c #8A5119",
"$. c #8D531A",
"%. c #91551B",
"&. c #975A1C",
"*. c #995A1C",
"=. c #9A5B1C",
"-. c #9C5C1D",
";. c #9D5D1D",
":. c #9E5D1D",
">. c #9C5C1D",
",. c #A25F1D",
"<. c #A05F1D",
"1. c #A3601E",
"2. c #A5611E",
"3. c #A6621E",
"4. c #A4611E",
"5. c #A9641F",
"6. c #A9641F",
"7. c #AD6620",
"8. c #AD6620",
"9. c #B36A21",
"0. c #B46A21",
"q. c #B46B21",
"w. c #B56B21",
"e. c #B66B21",
"r. c #B66C21",
"t. c #B56B21",
"y. c #B96D22",
"u. c #814F4E",
"i. c #81504F",
"p. c #845150",
"a. c None",
/* pixels */
"a.a.a.a.a.a.a.a.a.a.a.a.a.a.a.a.a.a.@ o   o @ O @ @ @ @ o   o @ a.a.a.a.a.a.a.a.a.a.a.a.a.a.a.a.a.a.",
"a.a.a.a.a.a.a.a.a.a.a.a.a.a.a.@ # : 5 > . 4 i 9 5 i k i 2 . > 3 # @ @ a.a.a.a.a.a.a.a.a.a.a.a.a.a.a.",
"a.a.a.a.a.a.a.a.a.a.a.a.@ % < , z X.c 2 X 6 p x p v u.b 3 . 2 p e 3 > # @ @ a.a.a.a.a.a.a.a.a.a.a.a.",
"a.a.a.a.a.a.a.a.a.  @ 1 9 c { , 4 { g : . > p N g g } h > . * 3 3 : * e k h % X   a.a.a.a.a.a.a.a.a.",
"a.a.a.a.a.a.a.@ # @ 8 N k p p 3 > o $ * * * * - * * = * * * * $ . * 3 i V L 3 % # 1 : a.a.a.a.a.a.a.",
"a.a.a.a.a.a.@ 4 c p 2 % 2 2 2 = * = f Q I E ^ ^ ^ ^ ^ ^ E f Q f = * = 2 3 2 # 2 k ) q # a.a.a.a.a.a.",
"a.a.a.a.@ # : l [ 9 2 2 = = - T o.o.6.:.U 1.q.q.q.q.9.q.1.R >.6.O.O.f ; = = - 2 2 p 5 2 0 < a.a.a.a.",
"a.a.a.4 q i * & : - - - R ! T 2.9.9.r.:.U 1.r.q.q.q.r.r.1.U >.r.e.e.2.f / E ; - - 2 * , K j # a.a.a.",
"a.@ & n j , , , ; o.@.#.7.*.T 2.r.q.r.:.U ,.y.q.q.q.q.r.3.U >.r.q.e.5.U =.6.#.#.! ; > , , , , * # a.",
". : 4 : * % . ; R ,.e.e.y.=.T 2.r.q.r.:.U 4.r.q.q.q.r.r.3.U <.r.e.e.4.R =.y.e.e.6.! ; . % * * e *   ",
"  > p V c e @ ; E 8.e.e.e.*.E 3.r.q.r.:.R 2.r.q.q.q.q.r.3.U >.r.q.e.4.R =.e.q.e.,.! ; X e e h C 4   ",
". @ 2 S b e @ ; E ,.e.e.e.*.T 2.y.q.r.:.U 1.r.q.q.q.q.r.1.U <.r.q.q.5.R =.y.q.e.6.! 2 # V v h H q   ",
"  # > * > * . ; E 6.e.e.e.*.T 2.r.q.y.:.R 1.r.q.t.t.t.r.1.U >.r.q.q.5.U =.e.q.e.6.R ; @ l 4 > * @ . ",
"  : i > : * . ; E 6.e.e.e.*.E 3.r.q.q.:.U 1.r.q.t.t.t.r.1.U <.r.q.y.4.R =.e.e.e.6.R ; . : = = > #   ",
"  * k S b e @ ; E 6.e.e.e.=.E 2.y.q.y.:.U 4.t.t.9.t.t.r.4.E >.r.q.e.3.U =.e.e.e.6.R ; X e p p p * . ",
". @ : q 4 % . ; E 6.e.e.e.=.T 2.q.q.q.:.U ,.t.t.t.t.t.r.4.U >.r.q.y.3.R *.y.e.e.6.R ; @ e p e * @ . ",
". 1 m 2 , > . ; E 6.q.q.r.=.U 3.y.q.y.:.U 4.r.q.q.e.q.q.4.R ,.q.9.r.2.R *.r.q.r.:.; O . # * * w :   ",
". 4 V ' M i o ; E 6.e.q.r.=.E 3.q.q.q.:.U 4.r.q.e.q.q.y.,.U ,.q.e.r.2.R y 7 7 7 ;     O > 2 4  .w   ",
"  * p v x 5 @ ; E 6.r.r.r.=.E 3.y.e.y.:.U 4.y.e.q.e.q.q.2.U :.q.r.r.2.T -             O 3 C | b 1   ",
"  : i : # # . ; E 6.r.r.r.=.U 3.q.q.q.:.U 4.q.q.e.q.e.y.,.U ,.q.r.r.2.T ~ +.o.+.f O   . # 9 c i : . ",
". @ : M ) G @ ; E 6.q.q.r.=.U 3.y.q.t.>.U 4.q.q.e.e.e.r.1.T ;.r.e.r.2.R ;.y.r.y.4.s - . 2 = # # @   ",
"  % 5 k K X.& ; E 6.e.e.r.=.E 3.q.q.y.>.U 4.y.q.9.9.e.r.1.T ;.r.e.r.2.R *.r.r.e.6.E ; @ i e 3 3 %   ",
"  : i e p k O ; E 6.e.q.r.=.U 3.y.q.y.>.U 1.r.q.r.e.e.r.1.T ;.r.r.r.2.T *.r.9.r.6.E ; . e p p p : . ",
". @ # & , 3 X ; E 6.e.e.r.=.E 3.e.q.t.<.R 4.r.q.r.9.e.r.1.T ;.r.r.r.2.R =.r.e.e.6.E ; O i i e e *   ",
"  * i K l @   ; E 6.r.r.2.@.d %.8.e.y.;.T 1.r.r.e.9.r.r.1.I ;.r.9.r.2.R =.r.r.e.3.E ; X 3 > # # @   ",
"  : p x h 3 @ ; R 6.r.6.t * X - s r.r.;.I 1.r.9.e.r.9.r.1.T ;.r.e.r.2.R =.r.9.e.8.E ; . # > 5 h :   ",
"  * 5 3 e e @ ; R 6.r.q.6.d . o.8.e.r.;.R 1.r.e.9.9.r.r.1.R ;.r.r.r.2.T =.r.r.e.3.E ; X 3 i k | w   ",
". o # @ > 3 . ; R 6.r.r.;.s . R ,.r.r.;.I 1.r.r.r.e.e.r.1.R ;.r.r.r.2.T =.r.e.e.8.E ; . 3 3 5 9 *   ",
"  * e e 2 #   ; Q 5.3.#.r - $ - a $.8.;.R 1.r.9.r.9.9.r.1.T ;.r.r.r.2.R *.e.e.e.3.E ; . # # # # @ . ",
"  > p p p 3 @ ; Q 6.I O $.&.I 1.R O $.1.I 1.r.r.e.e.r.r.1.T ;.r.9.r.2.R *.e.9.e.8.E ; @ 5 i i i *   ",
"  % 3 2 2 2 . ; R 6.o.6 E R u ! d 6 *.;.R 1.r.e.9.r.e.r.1.T ;.r.e.r.8.T =.r.e.e.8.R ; @ c x i 5 # . ",
"  @ # % % # . ; R 6.q.6.u ; - 6 d 9.r.;.I 1.r.r.9.e.e.r.1.T ;.r.9.e.1.R =.r.9.9.8.R ; @ m k > # @ . ",
"  > e e i i O ; E 3.e.e.9.&.I 1.9.e.r.;.T 1.r.9.r.r.e.r.1.T ;.r.e.r.2.R *.r.r.e.6.E ; . # # * i =   ",
"  4 C k p 9 . ; E 7.e.e.r.*.R 2.r.e.r.;.T 1.r.e.e.9.9.r.1.T ;.r.e.r.2.T *.r.q.q.6.E ; O i p p b 1   ",
"  l u.5 > > . ; E 7.e.e.r.=.T 2.r.e.r.;.T 1.r.r.e.r.r.r.1.R ;.r.r.r.2.R *.r.q.q.6.E ; . > 3 k K 9   ",
"  1 n > : * . 6 E 3.e.e.r.=.R 2.r.e.r.;.T 1.r.9.9.9.e.r.1.R ;.r.9.r.2.R :.y.y.r.4.t * . % > > - #   ",
"  # > e e e @ 2 R 5.e.e.r.=.R 2.r.e.r.;.R 1.r.9.r.e.9.r.1.R ;.y.r.r.2.R d d s d y     @ e 2 : * #   ",
"  : p p v V @ ; R 5.e.e.r.=.R 2.r.e.r.;.I 1.r.e.r.9.e.r.1.I ;.r.e.r.2.T =             @ i p p D 8   ",
"  # * % m ..& ; R 6.e.e.r.=.R 2.r.r.r.;.R 1.r.r.e.e.9.r.1.I ;.r.9.r.2.R d d s d t .   . % 2 x p.l   ",
"  # > > 5 q o ; E 6.e.r.r.=.R 2.r.r.r.;.I 1.r.9.9.r.r.r.1.R ;.r.r.r.2.R >.r.y.y.,.t * . > > : g <   ",
"  > p i 3 : . ; E 6.e.9.r.=.R 2.r.q.r.:.U 2.r.e.r.9.9.r.1.T ;.e.r.r.2.T =.r.e.e.5.E ; o e 3 > > #   ",
"  * k J b i o ; R 6.e.e.r.=.R 2.y.q.r.:.U 2.r.e.e.e.e.r.1.T ;.y.r.r.2.R =.r.9.e.6.E ; O e p p p :   ",
"  @ * 4 1 # . 6 E 6.r.e.r.=.R 2.r.q.r.:.U 1.r.e.9.r.e.r.1.T =.e.e.r.2.R =.r.r.e.6.E ; O 3 M H : O . ",
". # 2 2 2 2 . 6 E 6.r.r.r.=.R 2.r.q.r.:.T 1.r.e.9.e.e.r.1.T ,.e.9.r.2.R =.r.9.e.6.E ; . # 1 4 2 %   ",
". : i p p i X ; R 6.e.e.r.=.R 2.r.r.r.:.U 1.r.q.r.r.e.r.,.T =.e.r.r.2.R =.r.r.r.8.R 6 . 2 2 i } q . ",
". @ * 5 i 3 o ; R 6.r.9.r.=.R 2.r.y.r.:.R 1.r.q.e.9.9.r.,.T ,.e.e.r.2.T =.r.r.r.8.R ; o e C | b 1   ",
"  8 N : # #   6 E 2.9.9.9.&.R 1.9.6.9.>.T ;.9.9.q.6.9.9.<.T =.e.9.9.1.R &.q.8.9.1.R 6   @ n X.p :   ",
"  4 v 5 5 2 X ; d R R R R I d I R R R I d T R R R R R R T f f E R R I d I R E R I d ; o 3 , : : @ . ",
"  q K g e 3 @ . # + + + + + + + + + # + + + + + + + + # + + + + + + # + + + + + # + X O 3 3 9 G 0   ",
"  @ & # @ @ . .                         .                                             . @ @ @ : @   "
};
