/* XPM */
static char *a2lzc3BuZy1wYWMtbWFuLWNvbXB1dGVyLWljb25zLWNsaXAtYXJ0LXBhYy1tYW4tNWFkNWIzMmVkZjYyNTguMDYzMzYxNzUxNTIzOTU0NDc4OTE1X3ByZXZpZXdfcmV2XzErJTI4MSUyOQ__[] = {
/* columns rows colors chars-per-pixel */
"46 50 163 2 ",
"   c #0F0D04",
".  c #161306",
"X  c #1A1607",
"o  c #1E1908",
"O  c #231E09",
"+  c #27220C",
"@  c #2B240B",
"#  c #2F280A",
"$  c #362E0E",
"%  c #39300D",
"&  c #3D3514",
"*  c #42370E",
"=  c #44390E",
"-  c #443B15",
";  c #4B4013",
":  c #514618",
">  c #5D511F",
",  c #62551B",
"<  c #7C6302",
"1  c #70601F",
"2  c #79671D",
"3  c #615522",
"4  c #6C5E24",
"5  c #766624",
"6  c #836901",
"7  c #896E02",
"8  c #8E7202",
"9  c #937602",
"0  c #977901",
"q  c #9D7D01",
"w  c #826E1E",
"e  c #827023",
"r  c #8C7828",
"t  c #9A811E",
"y  c #A48301",
"u  c #AD8B02",
"i  c #AE8D08",
"p  c #B28E02",
"a  c #B59101",
"s  c #BB9500",
"d  c #BE9800",
"f  c #B29109",
"g  c #BB990F",
"h  c #A68912",
"j  c #AD9019",
"k  c #B39312",
"l  c #B59718",
"z  c #B6981D",
"x  c #BD9D1B",
"c  c #9B8735",
"v  c #9F8A31",
"b  c #A98F26",
"n  c #A58D2A",
"m  c #B49824",
"M  c #B3982A",
"N  c #A5913B",
"B  c #B59C36",
"V  c #B59D3A",
"C  c #C39C00",
"Z  c #C89F01",
"A  c #C09C0C",
"S  c #CCA301",
"D  c #C7A30F",
"F  c #CCA60F",
"G  c #D0A600",
"H  c #D4AA00",
"J  c #D9AE00",
"K  c #D0A808",
"L  c #DDB100",
"P  c #DDB30B",
"I  c #C3A014",
"U  c #CFAA16",
"Y  c #C3A21B",
"T  c #C8A518",
"R  c #CFAC1E",
"E  c #D1AD1C",
"W  c #DCB514",
"Q  c #D7B21A",
"!  c #DAB41C",
"~  c #DFB91B",
"^  c #E3B500",
"/  c #E7B901",
"(  c #ECBC00",
")  c #E2B70D",
"_  c #E5BA0D",
"`  c #E8BC09",
"'  c #E1B813",
"]  c #E9BE12",
"[  c #C3A426",
"{  c #CDAD29",
"}  c #D4B32B",
"|  c #DDBA29",
" . c #C2A633",
".. c #C9AC37",
"X. c #D7B93E",
"o. c #E6BF22",
"O. c #E1BF36",
"+. c #F4C300",
"@. c #F8C700",
"#. c #FDCB02",
"$. c #F6C708",
"%. c #FFCE0B",
"&. c #FFD00D",
"*. c #EFC518",
"=. c #F2C617",
"-. c #F5C914",
";. c #FECF11",
":. c #F1C61A",
">. c #FACE1B",
",. c #FFD014",
"<. c #FFD21C",
"1. c #EBC322",
"2. c #EFC827",
"3. c #E9C329",
"4. c #F6CC23",
"5. c #F9CF26",
"6. c #FED324",
"7. c #FFD52B",
"8. c #FFD82D",
"9. c #E7C63E",
"0. c #E9C638",
"q. c #F6D036",
"w. c #FFD633",
"e. c #FFD834",
"r. c #FFD83B",
"t. c #CDB140",
"y. c #CAB149",
"u. c #DBC051",
"i. c #E3C345",
"p. c #EBCA47",
"a. c #EBCB49",
"s. c #F0CE42",
"d. c #F6D345",
"f. c #FFDA43",
"g. c #F6D54E",
"h. c #FAD74C",
"j. c #FFDB4B",
"k. c #F5D553",
"l. c #FFDC51",
"z. c #FFDD52",
"x. c #FFDD55",
"c. c #FFDE57",
"v. c #FFDE55",
"b. c #FFDD53",
"n. c #FFDE59",
"m. c #FFDF5A",
"M. c #FFDF5D",
"N. c #FFDF5E",
"B. c #FFDF5B",
"V. c #FFE15E",
"C. c #FFDF60",
"Z. c #FFE062",
"A. c #FFE161",
"S. c #FFE166",
"D. c #FFE065",
"F. c #FFE064",
"G. c #FFE26A",
"H. c #FFE26D",
"J. c #FFE26C",
"K. c #FFE474",
"L. c #FFE57A",
"P. c None",
"I. c black",
/* pixels */
"P.P.P.P.P.P.P.P.P.P.P.P.P.P.P.P.P.P.P.P.l Y E ! ! ! Q U I k P.P.P.P.P.P.P.P.P.P.P.P.P.P.P.P.",
"P.P.P.P.P.P.P.P.P.P.P.P.P.P.P.P.j { o.4.6.6.6.6.6.6.6.<.<.>.=.' D P.P.P.P.P.P.P.P.P.P.P.P.P.",
"P.P.P.P.P.P.P.P.P.P.P.P.P.P.x o.6.7.7.7.7.7.7.7.7.7.6.6.6.<.<.<.,.-.P f P.P.P.P.P.P.P.P.P.P.",
"P.P.P.P.P.P.P.P.P.P.P.P.x 1.6.7.7.7.7.w.w.w.w.w.8.7.7.7.6.6.6.<.<.<.,.$.P u P.P.P.P.P.P.P.P.",
"P.P.P.P.P.P.P.P.P.P.P.| 5.7.7.w.w.w.w.r.w.r.r.e.w.w.w.w.7.7.6.6.<.<.<.,.&.$.F P.P.P.P.P.P.P.",
"P.P.P.P.P.P.P.P.P.l 1.6.7.7.w.w.r.r.r.r.r.r.r.r.r.r.r.w.e.w.7.6.6.<.<.,.,.&.#./ P.P.P.P.P.P.",
"P.P.P.P.P.P.P.P.I 4.6.7.7.w.w.r.r.r.f.f.f.f.f.f.f.r.r.r.r.e.w.7.7.6.<.<.,.&.%.#.+.u P.P.P.P.",
"P.P.P.P.P.P.P.T 6.6.7.w.w.w.r.f.f.f.f.j.j.j.j.j.j.f.f.r.r.q.w.7.7.6.6.<.,.,.&.#.#.( u P.P.P.",
"P.P.P.P.P.P.Y <.6.7.7.w.r.r.f.f.f.j.j.j.l.l.l.j.j.j.j.9.n w w m q.6.6.6.<.,.%.%.#.#.( y P.P.",
"P.P.P.P.P.g >.6.7.7.w.w.r.r.f.f.j.l.x.l.x.x.x.x.z.z.p.r 1 , ; * t 7.6.6.<.,.,.&.#.#.#.^ P.P.",
"P.P.P.P.P.*.<.6.7.7.w.r.f.f.j.j.x.x.m.m.V.B.B.m.x.x.V 5 , ; $ @ = | 7.6.6.<.,.&.&.#.#.@.H P.",
"P.P.P.P.W <.6.6.7.w.r.r.f.f.j.l.x.m.B.B.F.F.C.V.V.m.c 4 : $ o X # [ 8.6.6.<.,.,.&.#.#.@.( q ",
"P.P.P.g >.<.6.7.7.w.r.r.f.j.z.x.m.M.F.D.S.S.G.S.F.V.N > - +   . % } 7.7.6.<.,.,.&.#.#./ u P.",
"P.P.P.] <.<.6.6.w.w.r.f.f.j.z.x.M.C.D.G.G.G.J.G.S.F.u.3 - + X O 5 w.w.7.6.<.<.,.&.$.K P.P.P.",
"P.P.A ;.<.<.6.7.w.r.r.f.j.j.x.m.C.D.G.H.K.K.K.J.G.S.C.y.4 - - e 0.e.w.7.6.6.<.;.) i P.P.P.P.",
"P.P._ ,.<.<.7.7.w.e.r.f.j.l.x.M.F.D.H.K.L.L.K.K.J.S.C.m.k.i.i.f.r.r.w.7.6.6.:.I P.P.P.P.P.P.",
"P.i %.,.<.<.6.7.w.w.f.f.j.l.x.M.F.G.H.K.L.L.L.K.K.D.F.m.x.z.j.j.f.r.w.7.6.Q P.P.P.P.P.P.P.P.",
"P.K %.,.<.6.6.7.w.r.r.f.j.l.x.M.C.D.H.K.K.L.L.K.H.G.C.V.x.z.j.f.r.r.w.3.z P.P.P.P.P.P.P.P.P.",
"P.` &.,.<.<.6.7.w.w.r.f.f.j.x.m.F.D.G.H.K.K.K.K.J.D.F.V.x.l.j.r.r.q.{ P.P.P.P.P.P.P.P.P.P.P.",
"P.$.&.,.<.<.6.7.w.w.r.f.j.j.l.m.V.F.D.G.H.H.G.G.D.D.V.x.x.j.f.f.O.b P.P.P.P.P.P.P.P.P.P.P.P.",
"a %.%.;.,.<.6.7.7.w.r.f.f.j.j.x.m.M.C.D.G.G.D.D.F.m.V.x.l.j.s. .P.P.P.P.P.P.P.P.P.P.P.P.P.P.",
"Z #.%.;.,.<.6.6.7.w.r.r.f.j.j.l.x.m.M.C.F.C.F.F.M.V.x.j.g.X.P.P.P.P.P.P.P.P.P.P.P.P.P.P.P.P.",
"H #.#.%.,.<.<.6.7.w.w.r.r.f.j.j.z.x.m.M.M.M.m.M.x.x.V.p.B P.P.P.P.P.P.P.P.P.P.P.P.P.P.P.P.P.",
"H #.%.%.,.<.<.6.6.7.w.w.r.f.f.j.j.l.z.x.x.m.x.x.z.k.t.P.P.P.P.P.P.P.P.P.P.P.P.P.P.P.P.P.P.P.",
"H #.#.&.&.,.<.<.6.7.7.w.r.r.f.f.f.j.j.j.z.z.j.z.a.v P.P.P.P.P.P.P.P.P.P.P.P.P.P.P.P.P.P.P.P.",
"H #.#.%.%.,.<.<.6.6.7.7.w.r.r.r.f.f.j.j.j.j.j.j.d...P.P.P.P.P.P.P.P.P.P.P.P.P.P.P.P.P.P.P.P.",
"S @.#.#.%.%.,.<.6.6.6.7.7.w.w.r.r.f.f.f.f.f.f.f.f.f.0.M P.P.P.P.P.P.P.P.P.P.P.P.P.P.P.P.P.P.",
"C +.#.#.#.%.,.,.<.<.6.7.7.w.w.r.r.r.r.r.f.r.f.r.r.r.r.w.} P.P.P.P.P.P.P.P.P.P.P.P.P.P.P.P.P.",
"a +.@.#.#.&.&.,.,.<.<.6.6.7.7.7.w.w.r.w.r.e.r.w.r.w.w.7.7.2.Y P.P.P.P.P.P.P.P.P.P.P.P.P.P.P.",
"y ( +.@.#.#.%.&.,.<.<.<.6.6.7.7.7.7.w.w.w.w.w.w.w.w.7.7.7.6.6.~ h P.P.P.P.P.P.P.P.P.P.P.P.P.",
"P.^ +.+.#.#.#.%.%.,.,.<.<.6.6.6.6.7.7.7.7.w.7.7.7.6.7.6.6.6.<.<.-.F P.P.P.P.P.P.P.P.P.P.P.P.",
"P.S ( +.+.#.#.#.%.%.;.;.,.<.<.6.6.6.6.6.6.6.7.6.6.6.6.<.<.<.<.;.,.,.` a P.P.P.P.P.P.P.P.P.P.",
"P.p ( ( +.+.@.#.#.%.&.,.,.,.<.<.<.<.<.6.<.6.6.6.<.<.<.<.,.,.,.,.%.&.#.#.H P.P.P.P.P.P.P.P.P.",
"P.P.J ( +.+.@.#.#.#.#.%.%.&.,.,.<.,.<.<.<.<.<.<.<.,.,.<.,.%.&.%.#.#.#.@.@./ a P.P.P.P.P.P.P.",
"P.P.C / ( ( +.+.@.#.#.#.%.&.%.%.&.,.,.,.,.,.,.,.,.,.,.%.&.&.&.#.#.#.#.+.+.( ( S 9 P.P.P.P.P.",
"P.P.q J ^ ( ( +.+.@.#.#.#.#.#.%.%.&.&.&.%.;.;.%.%.%.%.%.&.#.#.#.#.@.+.+.( ( ^ ^ H u P.P.P.P.",
"P.P.P.d ^ ^ / ( +.+.+.@.#.#.#.#.#.#.&.&.#.&.&.#.%.#.#.#.#.#.@.@.+.+.( ( ( ^ ^ J J H s 8 P.P.",
"P.P.P.8 H ^ ^ / ( ( +.+.+.@.@.#.#.#.#.#.#.#.#.#.#.#.#.@.#.@.+.+.+.+.( ( ^ ^ L J G G S C y P.",
"P.P.P.P.y J L ^ ^ ( ( ( ( +.+.@.@.@.@.#.#.#.#.#.#.@.@.+.+.+.+.+.( ( ^ ^ L J H H G S Z C s < ",
"P.P.P.P.P.d J L L ^ / / ( ( +.+.+.+.+.+.+.+.+.+.+.+.+.+.+.( ( / ^ ^ L L J H H S Z Z C s 9 P.",
"P.P.P.P.P.P.C H J L ^ ^ ^ ^ ( ( ( ( ( ( ( +.( ( ( +.( ( ( / / ^ ^ L J H H G S Z Z d s q P.P.",
"P.P.P.P.P.P.7 Z H H J L L ^ ^ ^ / / ( ( / ( ( / / / / / ^ ^ L L J H H H S S Z Z C s y P.P.P.",
"P.P.P.P.P.P.P.7 C H H H J J L L L ^ ^ ^ ^ ^ ^ ^ ^ L L L L J H H H H S S S Z C s s y P.P.P.P.",
"P.P.P.P.P.P.P.P.6 s S G G H H J J J J L J L J L J L L H H H H S S S Z Z Z s s s q P.P.P.P.P.",
"P.P.P.P.P.P.P.P.P.P.u S S S G G H H H H H H H H H H H H S S S S S Z C C d s p 8 P.P.P.P.P.P.",
"P.P.P.P.P.P.P.P.P.P.P.9 s S S S S S S S H S H S S S S S S S S C C s s s a y < P.P.P.P.P.P.P.",
"P.P.P.P.P.P.P.P.P.P.P.P.P.q s Z S Z S Z S Z S Z S S Z C C C d d s s a y 7 P.P.P.P.P.P.P.P.P.",
"P.P.P.P.P.P.P.P.P.P.P.P.P.P.P.9 u s d C C C C d d d C d d d d a u y 6 P.P.P.P.P.P.P.P.P.P.P.",
"P.P.P.P.P.P.P.P.P.P.P.P.P.P.P.P.P.< 0 y u a s s a s a a u y y 7 P.P.P.P.P.P.P.P.P.P.P.P.P.P.",
"P.P.P.P.P.P.P.P.P.P.P.P.P.P.P.P.P.P.P.P.P.P.< 6 6 6 < < I.I.I.I.P.P.P.P.P.P.P.P.P.P.P.P.P.P."
};
