/* XPM */
static char *_87842b284ce43e59d7947695d44cc58F45s3mc6TcKTRqKr[] = {
/* columns rows colors chars-per-pixel */
"50 50 173 2 ",
"   c None",
".  c #0C0A03",
"X  c #1A1606",
"o  c #1D1A07",
"O  c #2A240A",
"+  c #332C0E",
"@  c #41360D",
"#  c #453B0F",
"$  c #413710",
"%  c #463C15",
"&  c #4C4010",
"*  c #544711",
"=  c #564916",
"-  c #54491D",
";  c #655514",
":  c #7C6406",
">  c #645722",
",  c #6F6026",
"<  c #776623",
"1  c #75672D",
"2  c #7C6D2A",
"3  c #6F653B",
"4  c #846A06",
"5  c #896E06",
"6  c #876D09",
"7  c #8D7105",
"8  c #937604",
"9  c #977904",
"0  c #9C7D03",
"q  c #8C761F",
"w  c #967F22",
"e  c #837952",
"r  c #9F8002",
"t  c #A38303",
"y  c #A88701",
"u  c #AC8A02",
"i  c #B18E01",
"p  c #B59102",
"a  c #BB9601",
"s  c #BE9901",
"d  c #B2910A",
"f  c #AB8F14",
"g  c #AA8F1E",
"h  c #B49514",
"j  c #B1941C",
"k  c #BA9B1B",
"l  c #968026",
"z  c #9E8623",
"x  c #B19832",
"c  c #B89E30",
"v  c #B39C38",
"b  c #BCA43F",
"n  c #C49C00",
"m  c #C89F00",
"M  c #CCA300",
"N  c #C6A20E",
"B  c #CBA60F",
"V  c #CEA80C",
"C  c #D1A700",
"Z  c #D4AA00",
"A  c #D9AE00",
"S  c #D3AC09",
"D  c #DDB100",
"F  c #C2A014",
"G  c #CFAA14",
"H  c #C4A31A",
"J  c #CDAA1B",
"K  c #D2AE18",
"L  c #D7B219",
"P  c #DAB314",
"I  c #E2B500",
"U  c #E7B801",
"Y  c #ECBC00",
"T  c #E7BC0B",
"R  c #E9BE0C",
"E  c #F0BF00",
"W  c #E2BA14",
"Q  c #E4BD1F",
"!  c #C2A323",
"~  c #CAAA25",
"^  c #D4B120",
"/  c #D0B02A",
"(  c #DCB92A",
")  c #CDAF32",
"_  c #C6AB38",
"`  c #D6B83B",
"'  c #DCBB34",
"]  c #E1BC22",
"[  c #E1BC2B",
"{  c #F4C300",
"}  c #F8C700",
"|  c #FDCB03",
" . c #F3C50C",
".. c #FECE0B",
"X. c #EEC314",
"o. c #F3C817",
"O. c #FFCF12",
"+. c #F7CC1C",
"@. c #FBCE1B",
"#. c #F1C514",
"$. c #FFD015",
"%. c #FED21E",
"&. c #FFD11D",
"*. c #FFD11B",
"=. c #E6C020",
"-. c #EBC423",
";. c #EBC52C",
":. c #F4CB23",
">. c #F9CF23",
",. c #F5CD2C",
"<. c #FED221",
"1. c #FED322",
"2. c #FED325",
"3. c #FED326",
"4. c #FDD324",
"5. c #FED427",
"6. c #FFD425",
"7. c #FED324",
"8. c #FED429",
"9. c #FFD42B",
"0. c #FFD42D",
"q. c #FFD52E",
"w. c #FFD52B",
"e. c #EAC530",
"r. c #E6C53D",
"t. c #F3CF3A",
"y. c #F4CE34",
"u. c #FFD531",
"i. c #FED532",
"p. c #FFD633",
"a. c #FED635",
"s. c #FED737",
"d. c #FFD633",
"f. c #FFD837",
"g. c #FFD739",
"h. c #FFD73A",
"j. c #FED73A",
"k. c #FFD83B",
"l. c #FFD838",
"z. c #FFD83D",
"x. c #FED83E",
"c. c #FFD83C",
"v. c #9F9467",
"b. c #C6AE47",
"n. c #D4B640",
"m. c #DABD45",
"M. c #DDC045",
"N. c #DFC148",
"B. c #E7C640",
"V. c #EECD45",
"C. c #FAD645",
"Z. c #FED940",
"A. c #FED943",
"S. c #FED945",
"D. c #FFDA47",
"F. c #FEDA46",
"G. c #FED943",
"H. c #F5D34B",
"J. c #FFDA49",
"K. c #FFDB4C",
"L. c #FFDB4E",
"P. c #FFDB4C",
"I. c #E0C451",
"U. c #EFD259",
"Y. c #FEDC52",
"T. c #FEDD54",
"R. c #FEDE5C",
"E. c #FFE05D",
"W. c #FEDF61",
"Q. c #FFE065",
"!. c #FEE26C",
"~. c #FEE373",
"^. c #FFE47A",
/* pixels */
"                                          t i d a s s s d                                           ",
"                                    d M D Y { { } } | | { { T S d                                   ",
"                              t n I Y { { { } | | | | ..| ........T N                               ",
"                          9 M D U Y Y { { } | | | ........O.......$...X.F                           ",
"                        p Z I U Y E { { | | | | ....$...$.$.$.$.$.$.*.$.$.W f                       ",
"                      n A I U Y Y { } | | | ........$.$.*.*.*.*.*.*.%.*.*.$.o.F                     ",
"                  9 M A I U Y Y { } | | | ....O.O.*.*.*.%.%.%.%.1.1.1.1.%.%.*.*.G                   ",
"                9 M A A I U Y { { | | | ......O.$.*.%.%.1.1.5.5.5.5.5.5.5.1.7.%.%.K                 ",
"              8 m Z A I U Y { { | | | ....O.O.*.%.1.2.2.2.8.8.0.9.q.q.9.9.5.5.7.1.%.J               ",
"              n Z A D I Y Y { } | | ....O.O.%.%.1.1.8.8.0.q.i.i.i.i.d.q.i.q.9.9.2.1.%.H             ",
"            p C Z A I U Y { } | | | ..O.*.*.@.2.2.8.0.0.i.a.a.g.g.k.g.g.d.d.q.q.0.8.2.:.j           ",
"          t M Z A D I Y { { } | | ..O.O.*.%.1.8.8.0.i.a.a.g.k.z.z.z.z.z.k.k.f.d.i.0.5.5.=.          ",
"        5 n M Z A I U Y { { | | ....O.*.%.<.4.8.q.i.g.g.z.z.A.A.A.A.A.A.Z.z.g.g.a.i.0.8.1.J         ",
"        u M C Z A I Y E { } | | ..$.$.*.1.2.8.0.i.g.g.z.A.A.F.F.F.J.F.F.F.A.A.z.g.a.u.0.9.:.        ",
"      7 n M C A D U Y Y { | | ..O.O.*.%.2.8.0.i.s.k.z.A.F.J.J.P.K.Y.K.K.J.J.S.Z.z.g.a.u.9.5.^       ",
"      u m M Z A I U Y { } | | ..O.O.*.1.2.8.i.s.g.x.A.F.J.P.Y.Y.Y.T.T.Y.P.K.J.S.S.z.g.a.q.q.:.      ",
"      a M M Z D D U { { | | ....O.*.%.1.5.q.d.k.z.A.F.J.Y.T.T.T.R.R.T.R.Y.Y.K.J.F.Z.k.s.i.9.5.J     ",
"    r s M C Z D U U { { | | ....O.%.1.2.9.i.f.k.A.F.J.Y.Y.T.R.W.R.R.R.R.R.T.T.P.P.F.Z.g.s.q.9.=.    ",
"    u M M M A D U Y { { | | ..O.O.%.1.2.q.i.k.z.A.J.L.Y.T.R.R.W.Q.Q.Q.W.R.R.T.Y.P.F.Z.x.f.i.9.4.j   ",
"    a m M Z D D U Y { | | ....O.*.%.2.8.q.f.k.Z.A.J.Y.T.W.W.W.W.!.Q.!.Q.W.R.R.T.P.J.F.x.f.d.q.5.~   ",
"  8 s m M Z D D U Y { } | ....O.*.%.2.9.q.f.z.Z.F.K.Y.R.W.W.!.!.!.~.!.!.Q.W.R.T.Y.P.F.Z.k.s.u.6.]   ",
"  r s M M Z A D U Y { } | ....$.*.%.2.9.i.g.z.Z.J.Y.T.R.W.W.!.!.~.~.~.!.!.Q.W.R.T.P.J.Z.k.a.u.w.-.  ",
"  y n m M Z D I Y Y { | | ....$.*.%.5.q.i.f.z.D.J.Y.T.R.W.!.!.~.^.^.~.~.!.Q.W.R.T.K.J.A.z.a.i.9.>.g ",
"  u s m M Z D D U { { } | ....$.*.1.5.9.i.k.z.D.J.Y.R.R.W.W.~.~.^.^.^.~.!.Q.Q.R.T.Y.J.A.z.g.i.9.8.k ",
"  i n m M Z A I Y Y { } | ....$.*.%.5.9.i.k.z.F.J.Y.T.R.W.!.~.~.^.^.~.~.!.Q.W.T.T.P.F.A.z.a.q.9.2.H ",
"  p s n M Z A I Y Y { } | | ..$.*.%.5.9.i.a.z.A.J.P.T.T.W.W.!.!.~.~.~.!.!.Q.E.R.T.P.J.A.z.f.q.9.2.J ",
"  p n m M Z A D U Y { } | | ..$.*.%.5.9.q.f.z.A.C.H.Y.R.W.W.W.!.!.!.!.!.Q.E.R.T.Y.K.F.z.k.a.q.9.2.J ",
"  i s m M Z A D U Y { } | ....$.*.*.7.9.q.a.g.A.` v Y.T.R.W.W.W.Q.!.Q.Q.Q.E.E.Y.P.J.F.z.k.a.q.2.1.J ",
"  i s n M C A D U Y Y { | ....$.$.*.7.5.0.a.g.t.    M.T.R.R.W.W.Q.Q.W.Q.U.b.b m.K.F.A.z.a.i.0.2.%.J ",
"  u s n M M Z A I Y { { | | | ..$.*.%.7.8.u.a.)       H.Y.T.R.R.R.E.E.I.1 > 1 2 x C.z.g.a.q.8.2.%.F ",
"  u a n m C Z D I U Y { } | ....$.*.%.7.8.u.e.        n.K.Y.T.T.T.R.T.2 % - e v.< ) z.k.i.0.2.1.+.k ",
"  t a n m M Z A I Y Y { } | | ....$.*.1.4.0.!           V.K.Y.Y.Y.E.N.% + + % 3 , z k.i.q.8.2.%.@.f ",
"  0 p n m M M A D I Y Y { | | | ..O.*.%.5.]             _ F.J.K.K.P.n.+ o X O + = q a.q.9.5.<.*.#.  ",
"  7 p a n m C A D I Y Y { } | ....$.$.*.+.j               r.F.F.J.J.B.& X . X + # g d.9.5.5.%.*.W   ",
"    i s n m M Z A D U Y { } | | ....O.$.L                 c x.A.D.Z.F.l O o o O * ( u.5.7.7.*.$.G   ",
"    y p n m M Z Z D U Y Y { | | | ..O.#.                    ' z.z.z.z.t.l & @ ; ~ 9.5.7.%.*.$.o.h   ",
"    8 p s m M M Z A I U Y { { | | | ..B                       y.f.k.f.f.d.;.[ ,.9.5.7.1.%.$.$.X.    ",
"      i p n m M C A A U Y Y { } | | X.                        / d.d.d.u.u.u.w.5.5.7.%.*.*.$...V     ",
"      0 a s n m C Z A I U Y E { | } s                           -.w.w.w.5.5.5.7.1.%.*.*.$.$. .      ",
"      4 i s n m M Z Z A I Y Y {  .D                             ! 5.6.6.7.7.7.%.*.*.$.$.....S       ",
"        t p s n M M Z A I I Y Y Y y                               X.7.%.%.%.%.*.*.$.$..... .        ",
"        : i p n m M C Z A I U Y M                                 h *.%.*.*.$.$.$.........C         ",
"          9 p n n m C C A A I A                                     P $.$.$.$.......| | U           ",
"            0 s s n m C Z A A i                                        ...........| |  .d           ",
"              u p n n M C Z m                                         G | ..| | | | } m             ",
"              4 i s n n M M 0                                           X.| | | | } M               ",
"                4 i n n M p                                             s | } { { M                 ",
"                  4 u s s 5                                               D { { M                   ",
"                      u 0                                                 u D a                     ",
"                                                                            6                       "
};
