/* XPM */
static char *_f6c33ace5bd44c1b4d905260097e5d5KoM7hjPHN3stRMTr[] = {
/* columns rows colors chars-per-pixel */
"50 50 167 2 ",
"   c None",
".  c #0C0A03",
"X  c #1A1606",
"o  c #1D1906",
"O  c #1E1A08",
"+  c #2B240A",
"@  c #322B0E",
"#  c #3C330C",
"$  c #362F10",
"%  c #393211",
"&  c #453B0F",
"*  c #413710",
"=  c #463C16",
"-  c #493E10",
";  c #4C4113",
":  c #4A4118",
">  c #574A16",
",  c #54491D",
"<  c #5B4D12",
"1  c #645722",
"2  c #786725",
"3  c #73652B",
"4  c #7C6C29",
"5  c #7F702D",
"6  c #70663C",
"7  c #816703",
"8  c #836905",
"9  c #8A6F05",
"0  c #8D7205",
"q  c #937604",
"w  c #9B7C03",
"e  c #927608",
"r  c #84701E",
"t  c #947D1F",
"y  c #86762E",
"u  c #957F23",
"i  c #81774F",
"p  c #9F8004",
"a  c #A28203",
"s  c #A98701",
"d  c #AC8A03",
"f  c #A78809",
"g  c #B28E01",
"h  c #B59100",
"j  c #BB9601",
"k  c #BE9901",
"l  c #B2910B",
"z  c #BD9A0A",
"x  c #AE921E",
"c  c #B79715",
"v  c #BD9B10",
"b  c #B2961D",
"n  c #B69818",
"m  c #BB9C1D",
"M  c #998327",
"N  c #AE9632",
"B  c #B99F31",
"V  c #B49C39",
"C  c #BFA024",
"Z  c #C49C00",
"A  c #C89F00",
"S  c #C7A001",
"D  c #CCA300",
"F  c #CFA80B",
"G  c #D1A700",
"H  c #D5AA00",
"J  c #D9AE00",
"K  c #D4AD0E",
"L  c #DDB100",
"P  c #DCB309",
"I  c #CCA710",
"U  c #CDA913",
"Y  c #C3A21C",
"T  c #CDAA1B",
"R  c #D4AF19",
"E  c #D7B012",
"W  c #D5B11C",
"Q  c #DAB419",
"!  c #DAB415",
"~  c #E3B500",
"^  c #E7B800",
"/  c #ECBC00",
"(  c #E9BD09",
")  c #F0BF00",
"_  c #E8BF15",
"`  c #E5BE1F",
"'  c #C3A424",
"]  c #D5B221",
"[  c #DDB821",
"{  c #D2B12A",
"}  c #DBB82A",
"|  c #C7AA33",
" . c #CEAF31",
".. c #C7AB39",
"X. c #D6B83B",
"o. c #DCBC35",
"O. c #E2BD24",
"+. c #EEC004",
"@. c #EEC10C",
"#. c #F4C300",
"$. c #F8C700",
"%. c #FDCB02",
"&. c #FECE0C",
"*. c #FFD00D",
"=. c #EDC212",
"-. c #F3C612",
";. c #FFCF11",
":. c #F4C818",
">. c #F9CD1A",
",. c #FFD015",
"<. c #FFD119",
"1. c #FFD11A",
"2. c #FFD21A",
"3. c #FFD21D",
"4. c #FFD21F",
"5. c #FFD21C",
"6. c #E7C022",
"7. c #EEC623",
"8. c #E6C22E",
"9. c #EDC72A",
"0. c #F6CD23",
"q. c #F8CE21",
"w. c #F0C92C",
"e. c #FED321",
"r. c #FED322",
"t. c #FED325",
"y. c #FCD226",
"u. c #FED427",
"i. c #FED324",
"p. c #FED429",
"a. c #FFD52B",
"s. c #FFD62D",
"d. c #FFD52B",
"f. c #EBC630",
"g. c #E6C53E",
"h. c #F5CF35",
"j. c #F3CF3A",
"k. c #FFD631",
"l. c #FFD633",
"z. c #FFD837",
"x. c #FED739",
"c. c #FFD838",
"v. c #FFD93D",
"b. c #FFD83C",
"n. c #BEA640",
"m. c #A1966A",
"M. c #CAB149",
"N. c #D3B740",
"B. c #D9BC44",
"V. c #DEC046",
"C. c #EDCB44",
"Z. c #E4C64B",
"A. c #FAD645",
"S. c #FFDA43",
"D. c #FFDA44",
"F. c #F5D44C",
"G. c #FFDB4C",
"H. c #E5C954",
"J. c #FFDD54",
"K. c #FFDE5C",
"L. c #F3D55A",
"P. c #FFE15D",
"I. c #FFDF61",
"U. c #FFE064",
"Y. c #FFE26C",
"T. c #FFE474",
"R. c #FFE57A",
/* pixels */
"                      e                                                                             ",
"                    Z ~ d                                                 a d 9                     ",
"                  G #.$.P                                               9 j Z h 0                   ",
"                H $.$.%.$.Z                                             h D Z j h q                 ",
"              H %.%.%.%.&./                                           p D D D Z Z g 0               ",
"            G %.%.%.&.%.&.&.K                                         S J D D Z Z j g 7             ",
"          k $.&.&.&.&.&.&.&.-.                                      h L J H G D Z Z j d             ",
"          +.&.&.&.&.&.,.,.,.2.!                                     J ~ L J H G D Z j h w           ",
"        K &.&.&.;.,.>.,.2.2.3.>.n                                 S ( ^ ~ J H G D A Z j g 9         ",
"      l %.&.&.,.,.2.2.2.3.3.r.e.O.                              d / #.^ ~ ~ J H G D Z j j a         ",
"      P &.;.,.2.2.3.r.e.u.y.y.y.u.Y                             ~ $.#./ ^ ^ L J H D A Z j h 9       ",
"    l &.,.,.,.2.3.r.u.u.p.p.p.s.s.w.                          z $.$.#.#./ ^ ~ L H G D Z Z j a       ",
"    P ,.2.2.3.r.y.u.u.p.s.k.k.k.k.k.{                         ( %.%.$.$.) / ~ L J H D D Z j g 8     ",
"    @.,.2.3.r.y.p.s.w.} 8.z.z.z.c.c.h.                      U *.&.%.%.$.#.) ^ ~ L H G D Z j j w     ",
"  v >.2.3.r.y.p.s.' < # - u j.b.b.c.b.o.                    :.&.&.&.%.$.#.#./ ~ L J G D A Z j s     ",
"  E ,.3.r.y.p.s.{ ; + o o + M S.D.S.S.A.B                 Q ,.>.*.&.%.%.#.#./ ^ ~ J H G D Z j h 8   ",
"  _ 2.3.y.p.s.k.t - @ X . X : C.G.G.D.D.g.              b >.3.2.;.&.&.%.$.$./ ^ ^ L J G D Z Z h q   ",
"  :.3.r.y.d.k.h.r > * + o o % N.G.G.G.G.G...            O.u.3.2.,.&.&.%.%.$.#./ ^ L J G D Z k j w   ",
"n >.r.y.p.k.l.x.u 3 6 = @ @ : Z.P.J.J.J.G.C.          ' p.u.r.3.,.,.&.%.%.$.$.) ^ ~ J H G A Z j d   ",
"Y 3.r.p.p.z.b.b.| 2 m.i , = y K.J.J.P.J.J.J.N.        f.k.p.y.3.,.,.*.&.%.$.#./ ^ ~ L H G A Z j d   ",
"T 3.y.p.d.z.b.b.A.N 4 3 1 5 H.P.P.K.P.K.J.J.F.       .z.k.s.y.r.3.,.,.&.&.$.$./ / ~ L H G D Z Z h   ",
"R 3.u.s.k.z.b.S.D.G.B.n.M.L.U.U.U.U.U.K.K.J.J.B.    j.z.k.s.u.r.3.,.&.&.%.%.$.#./ ^ L J G D Z j h 7 ",
"W e.p.s.z.b.b.S.G.J.K.P.U.U.I.Y.U.Y.U.U.U.K.J.G.V X.S.b.z.s.p.y.3.2.*.*.%.%.$.#./ ^ ~ J H D D Z h 7 ",
"W y.p.k.z.b.S.S.G.J.J.P.I.I.Y.Y.Y.Y.Y.Y.U.K.K.J.F.A.S.b.z.k.p.y.3.,.,.*.&.%.$.#.) ^ ~ J H D Z Z h 7 ",
"W u.s.k.z.b.S.D.G.J.K.K.U.Y.Y.T.T.T.T.Y.I.I.K.J.G.G.S.b.c.k.p.u.3.2.,.&.&.%.$.$.) ^ ~ J H G Z k h 8 ",
"T e.p.k.z.b.S.G.J.J.K.I.U.Y.T.T.R.T.T.Y.Y.I.K.J.J.G.D.S.c.z.s.u.r.2.,.&.&.&.$.$.) ^ ~ J H D D Z h   ",
"' y.p.k.b.b.D.G.G.J.K.U.Y.Y.T.R.R.R.T.Y.Y.I.K.K.G.G.S.b.b.k.s.u.r.2.,.&.%.%.%.#.) ^ ~ J H G D Z h   ",
"b y.p.k.z.b.S.G.J.J.K.I.U.Y.T.T.R.R.T.Y.Y.I.K.K.J.G.S.b.z.z.p.u.r.3.,.*.&.%.%.#.) / ~ J H D Z Z d   ",
"  0.p.k.z.b.b.D.G.J.K.I.I.Y.Y.T.T.T.Y.Y.I.I.I.J.G.G.S.b.z.k.s.y.r.2.>.&.&.%.$.$.) ^ ~ L H G A Z a   ",
"  O.p.k.z.b.D.D.G.J.J.K.U.U.Y.Y.T.Y.Y.U.I.K.K.J.J.D.S.b.z.k.p.y.3.3.,.*.&.%.$.#./ ^ ~ L H D Z Z w   ",
"  ] p.k.l.b.S.D.G.G.J.K.I.U.U.Y.Y.U.Y.U.I.K.J.J.G.D.S.b.z.s.p.y.3.2.*.*.%.%.$.#./ ~ L J G G Z k 9   ",
"  m 0.d.k.x.b.D.G.G.J.J.K.I.U.U.U.U.U.I.K.J.J.G.G.D.b.b.z.s.p.e.3.,.;.*.%.%.$.$./ ^ L J G D D g     ",
"    7.s.k.z.b.S.D.D.G.J.K.K.K.K.K.I.K.K.K.J.J.D.D.S.b.x.k.s.y.e.2.,.;.&.%.%.$.#.^ ~ L J G D Z a     ",
"    ] p.p.z.z.b.D.D.G.G.G.K.K.K.K.J.K.J.J.G.G.D.D.S.x.l.s.p.y.3.2.,.&.&.%.%.$./ / ~ J H G D Z 9     ",
"    x 0.p.k.z.b.S.S.D.G.G.J.J.J.J.J.J.J.G.J.D.S.b.b.l.k.s.y.r.3.,.*.&.&.%.$.#.) ^ ~ J H G D g       ",
"      [ y.p.k.z.b.b.D.D.D.G.G.D.J.G.G.G.D.D.D.S.b.x.k.k.p.y.3.2.,.&.&.%.$.$.#./ ^ ~ J G D Z q       ",
"      b 0.p.s.k.x.b.b.S.D.D.D.G.D.D.G.D.S.S.b.b.x.k.k.p.y.r.3.,.;.&.%.%.%.#.) ^ ~ L H G D g         ",
"        W u.p.s.k.l.b.b.S.S.S.D.D.D.D.S.b.b.b.z.k.k.p.y.r.3.2.,.&.&.&.%.$.#.#.^ ~ J H G Z q         ",
"          7.u.p.d.k.l.l.b.b.b.A.b.b.b.b.b.b.z.k.d.p.q.r.3.2.>.&.&.&.%.$.$./ / ~ ~ H G G d           ",
"          m q.u.p.d.k.k.l.l.l.z.z.b.l.z.z.k.k.s.p.p.y.r.3.,.,.&.&.&.%.$.#./ ^ ~ L H H j             ",
"            T r.q.p.p.s.s.k.k.z.k.z.k.k.d.d.p.p.y.r.3.3.,.,.&.&.&.%.$.#.#.^ ~ ~ J H D 0             ",
"              Q r.y.u.u.p.s.p.d.s.s.p.d.d.p.u.y.r.3.2.,.,.&.&.%.%.$.$.#./ ^ ~ J H D w               ",
"                Q 3.r.e.r.y.y.p.p.u.u.u.y.r.r.3.3.2.,.;.&.&.&.%.%.$.#.) ^ ~ P J G a                 ",
"                  Q >.3.3.r.r.r.r.r.r.r.r.3.3.>.,.>.&.&.&.&.%.%.$.#.) / ~ ~ L D w                   ",
"                    U >.2.2.3.3.3.3.3.3.2.2.,.,.,.*.&.&.&.%.%.$.#.) / ^ ~ L D w                     ",
"                      c =.2.2.,.2.,.,.,.>.,.&.*.&.&.&.%.%.%.$.#.) / ^ ~ L j                         ",
"                          U -.;.,.*.*.*.*.&.&.&.&.%.%.%.$.$.#.#./ / ~ D a                           ",
"                              F @.&.*.&.&.&.&.%.%.%.%.$.#.#.) ( ~ D d                               ",
"                                  z P / #.$.&.%.%.$.$.#./ ~ H Z a                                   ",
"                                        f z S D S Z Z j f                                           "
};
