/* XPM */
static char *a2lzc3BuZy1wYWMtbWFuLWNvbXB1dGVyLWljb25zLWMrJTI4NSUyOQ__[] = {
/* columns rows colors chars-per-pixel */
"50 50 166 2 ",
"   c #0D0B03",
".  c #1A1607",
"X  c #1C1807",
"o  c #1E1A09",
"O  c #2B240B",
"+  c #312A0C",
"@  c #382F0C",
"#  c #352E10",
"$  c #3D3512",
"%  c #473C0F",
"&  c #413711",
"*  c #453C13",
"=  c #4F4416",
"-  c #524511",
";  c #584B17",
":  c #50451A",
">  c #55491D",
",  c #7C6406",
"<  c #7D6A1D",
"1  c #655823",
"2  c #796827",
"3  c #74662D",
"4  c #7C6C29",
"5  c #70663D",
"6  c #856B05",
"7  c #896E04",
"8  c #8E7205",
"9  c #927604",
"0  c #977904",
"q  c #997B04",
"w  c #9D7E08",
"e  c #8A741D",
"r  c #8F7A22",
"t  c #927C22",
"y  c #857530",
"u  c #8F7D32",
"i  c #80754C",
"p  c #9F8003",
"a  c #A28204",
"s  c #A98702",
"d  c #AC8A03",
"f  c #AD8E0B",
"g  c #B18E01",
"h  c #B69101",
"j  c #BA9500",
"k  c #BE9800",
"l  c #B29109",
"z  c #BD9B0B",
"x  c #AE9015",
"c  c #AB901F",
"v  c #BF9F17",
"b  c #B4971D",
"n  c #B79819",
"m  c #BB9D1F",
"M  c #9B8529",
"N  c #B29622",
"B  c #AB9331",
"V  c #B59D39",
"C  c #BAA032",
"Z  c #C39C00",
"A  c #C89F00",
"S  c #C09C08",
"D  c #CCA300",
"F  c #C7A20A",
"G  c #CFA90C",
"H  c #D0A600",
"J  c #D4AA00",
"K  c #D9AE00",
"L  c #DDB100",
"P  c #DCB30E",
"I  c #C4A212",
"U  c #CCA710",
"Y  c #CCA919",
"T  c #C5A51C",
"R  c #D6B016",
"E  c #DBB413",
"W  c #D5B21C",
"Q  c #DBB61B",
"!  c #E2B500",
"~  c #E7B800",
"^  c #ECBC00",
"/  c #E1B608",
"(  c #E6BB0A",
")  c #EABE0A",
"_  c #E2BB1A",
"`  c #C4A423",
"'  c #CBA920",
"]  c #C8A828",
"[  c #DDB821",
"{  c #D3B22A",
"}  c #C1A532",
"|  c #C7AC3A",
" . c #CEB032",
".. c #D7B93C",
"X. c #DDBC35",
"o. c #E4BE22",
"O. c #E2BF2E",
"+. c #F3C300",
"@. c #F8C700",
"#. c #FDCB03",
"$. c #F4C60C",
"%. c #FFCE0C",
"&. c #FFD00D",
"*. c #EEC416",
"=. c #F2C614",
"-. c #F6C911",
";. c #FFCF10",
":. c #FACE1A",
">. c #FFD014",
",. c #FFD21B",
"<. c #EDC62C",
"1. c #EDC523",
"2. c #F4CC24",
"3. c #F8CD20",
"4. c #FED324",
"5. c #FFD52B",
"6. c #EBC731",
"7. c #E7C63F",
"8. c #F5CF36",
"9. c #F3CF3C",
"0. c #F7D135",
"q. c #FFD633",
"w. c #FFD837",
"e. c #F4D03A",
"r. c #FED638",
"t. c #FFD83C",
"y. c #A2986D",
"u. c #C0A842",
"i. c #CEB54A",
"p. c #D4B741",
"a. c #DCBE46",
"s. c #DFC146",
"d. c #EECD45",
"f. c #E9CA4C",
"g. c #F9D643",
"h. c #FFDA44",
"j. c #F6D34C",
"k. c #FFDC4F",
"l. c #FFDB4B",
"z. c #EACD56",
"x. c #FFDC50",
"c. c #FFDD53",
"v. c #FFDD54",
"b. c #FFDE56",
"n. c #FFDD56",
"m. c #FFDD53",
"M. c #F5D85C",
"N. c #FFDF5B",
"B. c #FFDE58",
"V. c #FFDF5D",
"C. c #FFDF5B",
"Z. c #FFE15D",
"A. c #FFDF60",
"S. c #FFDF60",
"D. c #FFE063",
"F. c #FFE160",
"G. c #FFE167",
"H. c #FFE065",
"J. c #FFE064",
"K. c #FFE26B",
"L. c #FFE26D",
"P. c #FFE26C",
"I. c #FFE473",
"U. c #FFE57A",
"Y. c None",
"T. c black",
/* pixels */
"Y.Y.Y.Y.Y.Y.Y.Y.Y.Y.Y.Y.Y.Y.Y.Y.Y.x v Y W Q Q Q Q W Y m c Y.Y.Y.Y.Y.Y.Y.Y.Y.Y.Y.Y.Y.Y.Y.Y.Y.Y.Y.Y.Y.",
"Y.Y.Y.Y.Y.Y.Y.Y.Y.Y.Y.Y.Y.Y.U E *.:.,.,.,.4.4.4.4.4.4.4.4.1.[ ` Y.Y.Y.Y.Y.Y.Y.Y.Y.Y.Y.Y.Y.Y.Y.Y.Y.Y.",
"Y.Y.Y.Y.Y.Y.Y.Y.Y.Y.Y.z P -.>.,.,.4.4.4.4.5.5.5.5.5.5.5.5.5.5.5.2.[ m Y.Y.Y.Y.Y.Y.Y.Y.Y.Y.Y.Y.Y.Y.Y.",
"Y.Y.Y.Y.Y.Y.Y.Y.Y.z ( %.>.>.,.,.,.4.4.4.5.5.5.5.q.q.q.q.q.q.5.5.5.5.4.o.m Y.Y.Y.Y.Y.Y.Y.Y.Y.Y.Y.Y.Y.",
"Y.Y.Y.Y.Y.Y.Y.f L %.&.>.>.,.,.4.4.5.5.5.q.q.q.w.t.t.w.t.w.w.q.q.q.5.5.5.4.[ Y.Y.Y.Y.Y.Y.Y.Y.Y.Y.Y.Y.",
"Y.Y.Y.Y.Y.Y.F +.%.%.>.>.,.,.4.4.5.5.q.q.q.t.t.t.t.t.t.t.t.t.t.w.q.q.q.5.5.4.2.T Y.Y.Y.Y.Y.Y.Y.Y.Y.Y.",
"Y.Y.Y.Y.Y.L #.#.&.>.>.,.,.4.4.5.5.q.q.t.t.t.t.h.h.h.h.h.h.h.t.t.t.r.q.q.5.5.4.4.W Y.Y.Y.Y.Y.Y.Y.Y.Y.",
"Y.Y.Y.Y./ #.#.%.&.>.,.,.4.4.5.q.q.0.r.t.g.h.h.l.h.l.l.h.l.l.h.h.h.t.t.q.q.q.5.4.4._ Y.Y.Y.Y.Y.Y.Y.Y.",
"Y.Y.Y.! #.#.&.&.&.>.,.,.4.5.5.` e < t C g.h.l.k.k.k.k.c.k.k.l.h.h.h.h.r.r.q.5.5.4.4._ Y.Y.Y.Y.Y.Y.Y.",
"Y.Y.K @.#.#.%.&.>.,.,.4.4.5.N = * ; 3 3 B l.k.c.c.b.b.b.c.c.x.k.l.h.h.t.t.q.q.5.5.4.,._ Y.Y.Y.Y.Y.Y.",
"Y.D +.#.#.#.%.;.>.,.4.4.5.<.- O + & 5 y.4 a.b.b.N.C.C.N.N.N.b.x.k.l.h.h.h.r.q.q.5.4.4.,.R Y.Y.Y.Y.Y.",
"p ~ +.#.#.%.%.>.,.,.4.5.5.{ @ X . O * i 3 u.Z.Z.Z.D.D.D.C.C.N.N.v.k.l.h.h.t.r.q.5.5.4.,.:.I Y.Y.Y.Y.",
"T.f ! #.#.%.&.>.,.,.4.5.q.6.* .   X # > 1 i.D.D.G.G.G.G.S.S.S.C.b.x.k.l.h.t.t.w.5.5.4.,.,.=.Y.Y.Y.Y.",
"Y.Y.Y.S ^ %.>.>.,.4.4.5.5.0.t O . o # = y M.D.G.K.L.L.L.L.K.G.S.N.b.x.k.h.h.t.q.q.5.4.4.,.,.E Y.Y.Y.",
"Y.Y.Y.Y.Y.G =.,.,.4.4.5.q.w.e.M : # : u z.D.G.L.L.I.I.I.I.L.K.S.C.N.c.k.l.h.t.t.q.5.5.4.,.>.-.f Y.Y.",
"Y.Y.Y.Y.Y.Y.Y.E :.4.4.5.q.w.t.h.d.a.f.B.Z.D.G.L.I.I.U.I.I.L.L.S.C.N.c.c.h.h.t.t.q.5.4.4.,.,.>.P Y.Y.",
"Y.Y.Y.Y.Y.Y.Y.Y.b *.5.5.q.w.t.h.h.k.c.Z.S.S.L.I.I.U.U.U.U.I.K.S.S.N.v.k.l.h.t.t.q.q.4.4.,.,.>.$.Y.Y.",
"Y.Y.Y.Y.Y.Y.Y.Y.Y.Y.` <.q.t.t.h.l.k.c.b.S.G.K.L.I.I.U.U.I.L.K.G.C.N.v.k.h.h.t.t.q.5.5.4.,.,.%.%.F Y.",
"Y.Y.Y.Y.Y.Y.Y.Y.Y.Y.Y.Y.{ 8.t.h.h.k.k.b.C.S.G.K.I.I.I.I.I.L.G.S.C.N.c.l.l.h.t.r.q.5.4.4.,.,.&.&./ Y.",
"Y.Y.Y.Y.Y.Y.Y.Y.Y.Y.Y.Y.Y.Y.X.g.h.l.k.b.C.S.S.K.K.L.L.L.K.K.S.S.N.b.x.l.h.h.r.r.q.5.4.4.,.>.;.%.$.Y.",
"Y.Y.Y.Y.Y.Y.Y.Y.Y.Y.Y.Y.Y.Y.Y.C d.g.k.c.b.C.S.S.S.K.K.K.G.G.S.C.N.c.k.l.h.h.r.q.5.5.4.4.,.>.>.%.#.l ",
"Y.Y.Y.Y.Y.Y.Y.Y.Y.Y.Y.Y.Y.Y.Y.Y.Y.| d.c.c.N.C.C.S.S.S.S.S.C.C.N.c.k.l.h.h.t.r.q.5.5.4.,.,.>.%.%.#.S ",
"Y.Y.Y.Y.Y.Y.Y.Y.Y.Y.Y.Y.Y.Y.Y.Y.Y.Y.Y.p.j.c.b.N.S.C.C.C.N.b.b.b.c.l.h.h.t.r.q.q.5.4.4.,.>.>.%.%.#.H ",
"Y.Y.Y.Y.Y.Y.Y.Y.Y.Y.Y.Y.Y.Y.Y.Y.Y.Y.Y.Y.Y.s.x.c.b.N.b.b.v.b.x.k.k.h.h.h.t.r.q.5.5.4.,.,.;.;.%.#.#.J ",
"Y.Y.Y.Y.Y.Y.Y.Y.Y.Y.Y.Y.Y.Y.Y.Y.Y.Y.Y.Y.Y.Y.V j.x.x.c.k.k.k.k.l.h.h.t.t.r.q.q.5.4.4.,.,.>.&.#.#.#.J ",
"Y.Y.Y.Y.Y.Y.Y.Y.Y.Y.Y.Y.Y.Y.Y.Y.Y.Y.Y.Y.Y.Y...g.l.l.l.l.l.h.h.h.h.h.t.r.q.q.5.4.4.,.,.>.%.%.%.#.#.D ",
"Y.Y.Y.Y.Y.Y.Y.Y.Y.Y.Y.Y.Y.Y.Y.Y.Y.Y.Y.Y. .9.h.h.h.h.h.h.h.h.h.t.t.t.q.q.5.5.5.4.,.,.>.>.%.%.#.#.#.D ",
"Y.Y.Y.Y.Y.Y.Y.Y.Y.Y.Y.Y.Y.Y.Y.Y.Y.Y.` 6.q.t.t.t.t.t.h.t.t.t.t.r.r.q.q.5.5.4.4.,.,.,.>.&.%.#.#.#.+.Z ",
"Y.Y.Y.Y.Y.Y.Y.Y.Y.Y.Y.Y.Y.Y.Y.Y.N o.5.q.q.q.q.r.w.w.t.r.t.q.q.q.q.5.5.5.4.4.,.,.>.>.;.%.#.#.#.+.+.l ",
"Y.Y.Y.Y.Y.Y.Y.Y.Y.Y.Y.Y.Y.Y.Y.W 3.4.4.5.5.5.q.5.q.q.q.q.q.q.q.5.5.5.5.4.4.,.,.,.>.%.%.#.#.#.@.+.~ p ",
"Y.Y.Y.Y.Y.Y.Y.Y.Y.Y.Y.Y.Y.U =.,.,.,.4.4.4.5.5.5.5.5.5.5.5.5.5.5.4.4.4.,.,.,.>.>.&.&.%.#.#.@.+.+.L T.",
"Y.Y.Y.Y.Y.Y.Y.Y.Y.Y.Y.S ) %.>.;.,.,.,.,.4.4.4.4.4.4.5.4.4.4.4.4.,.4.,.,.,.>.>.%.%.#.#.#.#.+.+.^ Z T.",
"Y.Y.Y.Y.Y.Y.Y.Y.Y.f L #.#.%.&.&.>.>.>.,.,.,.,.,.4.4.,.4.4.,.,.,.,.,.,.>.>.%.&.%.#.#.#.@.+.+.^ ! d Y.",
"Y.Y.Y.Y.Y.Y.Y.Y.D ^ #.#.#.#.#.%.%.&.>.>.>.>.,.,.,.,.,.,.,.,.,.,.>.>.>.;.&.%.%.#.#.#.#.+.+.^ ^ J Y.Y.",
"Y.Y.Y.Y.Y.Y.h L ^ +.+.+.#.#.#.#.&.&.%.>.>.>.;.>.>.>.>.>.>.>.>.>.;.&.%.%.#.#.#.#.#.+.+.^ ^ ~ ! h Y.Y.",
"Y.Y.Y.Y.a D L ! ~ ^ ^ +.+.@.#.#.#.#.#.#.%.%.%.%.;.%.;.&.%.&.&.&.%.&.#.#.#.#.#.@.+.+.+.^ ~ ! J Y.Y.Y.",
"Y.Y.7 h H J L L ! ~ ^ ^ ^ +.@.#.#.#.#.#.#.#.%.#.%.%.%.#.%.#.#.#.#.#.#.#.@.@.@.+.+.^ ^ ! ! L d T.Y.Y.",
"Y.a k D D J J K L ! ! ! ^ ^ ^ +.+.+.#.@.#.#.#.#.#.#.#.#.#.#.#.#.#.#.#.@.+.+.+.^ ^ ~ ! ! ! Z T.T.Y.Y.",
", h Z Z D D H J K K ! ! ~ ^ ^ ^ +.+.+.+.@.#.#.@.#.#.#.#.#.#.#.+.@.+.+.+.+.^ ^ ^ ~ ! / L H T.T.T.Y.Y.",
"Y.8 j Z Z A D H J J K K ! ! ~ ~ ^ ^ ^ +.^ +.+.+.+.+.+.+.+.+.+.+.+.^ +.^ ~ ~ ~ ! ! ! K H a T.T.T.Y.Y.",
"Y.Y.0 j Z Z Z D D H J K K L ! ! ! ~ ~ ^ ^ ^ ^ +.^ +.+.^ ^ +.^ ^ ^ ^ ~ ! ! ! ! K K J J s Y.Y.Y.Y.Y.Y.",
"Y.Y.Y.q h k Z Z D D D J J J K K K ! ! ! ! ~ ~ ! ^ ~ ~ ~ ~ ~ ~ ~ ! ! ! ! L K K K J H s Y.Y.Y.Y.Y.Y.Y.",
"Y.Y.Y.Y.9 g k Z Z Z A D H H J J K K K L ! L ! ! ! ! ! ! ! ! ! L ! L L K K J J H D a Y.Y.Y.Y.Y.Y.Y.Y.",
"Y.Y.Y.Y.Y.7 d j k Z Z A D D D H J J J J K K K K K K L L K L K K K K J J J H H Z q Y.Y.Y.Y.Y.Y.Y.Y.Y.",
"Y.Y.Y.Y.Y.Y.Y.a h k k Z Z Z A D D H H H J J J J J J J J J J J J H H H D D D g Y.Y.Y.Y.Y.Y.Y.Y.Y.Y.Y.",
"Y.Y.Y.Y.Y.Y.Y.Y.8 s h j k k Z Z Z Z A D D D D H H H H H D D D H D D D A h q Y.Y.Y.Y.Y.Y.Y.Y.Y.Y.Y.Y.",
"Y.Y.Y.Y.Y.Y.Y.Y.Y.Y.9 s h k j k k Z Z Z Z A Z Z A A D A A D D Z Z Z h q Y.Y.Y.Y.Y.Y.Y.Y.Y.Y.Y.Y.Y.Y.",
"Y.Y.Y.Y.Y.Y.Y.Y.Y.Y.Y.Y.7 w d h j k k k k Z Z Z Z Z Z Z Z Z k j s 0 Y.Y.Y.Y.Y.Y.Y.Y.Y.Y.Y.Y.Y.Y.Y.Y.",
"Y.Y.Y.Y.Y.Y.Y.Y.Y.Y.Y.Y.Y.Y.Y.7 q a d g j h j j h h h g s p 8 Y.Y.Y.Y.Y.Y.Y.Y.Y.Y.Y.Y.Y.Y.Y.Y.Y.Y.Y.",
"Y.Y.Y.Y.Y.Y.Y.Y.Y.Y.Y.Y.Y.Y.Y.Y.Y.Y.Y.Y.6 6 7 7 7 6 Y.Y.Y.Y.Y.Y.Y.Y.Y.Y.Y.Y.Y.Y.Y.Y.Y.Y.Y.Y.Y.Y.Y.Y."
};
