/* XPM */
static char *ZG93bmxvYWQrJTI4MiUyOSslMjg1JTI5Lg__[] = {
/* columns rows colors chars-per-pixel */
"50 50 235 2 ",
"   c #1E3152",
".  c #1F3253",
"X  c #233657",
"o  c #243758",
"O  c #253859",
"+  c #26395A",
"@  c #283B5C",
"#  c #293C5D",
"$  c #2A3D5E",
"%  c #2B3E5F",
"&  c #2C3F60",
"*  c #2D4061",
"=  c #2E4162",
"-  c #2F4263",
";  c #2F4666",
":  c #304364",
">  c #314465",
",  c #324566",
"<  c #334667",
"1  c #374866",
"2  c #344768",
"3  c #334A6A",
"4  c #354869",
"5  c #36496A",
"6  c #364A6B",
"7  c #374A6B",
"8  c #384B6C",
"9  c #394C6D",
"0  c #3A4D6E",
"q  c #3B4E6F",
"w  c #3C4C6D",
"e  c #3D4E6C",
"r  c #3E516F",
"t  c #3B4F70",
"y  c #3C4F70",
"u  c #3D5071",
"i  c #3E5172",
"p  c #3F5273",
"a  c #3F5676",
"s  c #40516F",
"d  c #425371",
"f  c #425573",
"g  c #405374",
"h  c #415475",
"j  c #425576",
"k  c #435676",
"l  c #435677",
"z  c #445475",
"x  c #445775",
"c  c #445777",
"v  c #475876",
"b  c #485977",
"n  c #445778",
"m  c #435A7A",
"M  c #445879",
"N  c #455879",
"B  c #465979",
"V  c #46597A",
"C  c #475A7B",
"Z  c #475B7C",
"A  c #455C7C",
"S  c #485B79",
"D  c #49597A",
"F  c #485B7B",
"G  c #4B5C7A",
"H  c #4C5D7B",
"J  c #485B7C",
"K  c #485C7D",
"L  c #495C7D",
"P  c #4A5D7E",
"I  c #485F7F",
"U  c #4B5E7E",
"Y  c #4B5E7F",
"T  c #4C5F7D",
"R  c #4E5F7D",
"E  c #4C5F7F",
"W  c #4D607E",
"Q  c #4F607E",
"!  c #4E617F",
"~  c #4C5F80",
"^  c #4A6181",
"/  c #4D6080",
"(  c #4C6081",
")  c #4D6081",
"_  c #4E6181",
"`  c #4D6182",
"'  c #4E6182",
"]  c #4F6282",
"[  c #4F6283",
"{  c #4F6384",
"}  c #4D6484",
"|  c #4E6585",
" . c #506081",
".. c #516280",
"X. c #526381",
"o. c #516482",
"O. c #536482",
"+. c #526583",
"@. c #506384",
"#. c #506485",
"$. c #516485",
"%. c #526585",
"&. c #536684",
"*. c #526586",
"=. c #506787",
"-. c #536686",
";. c #526687",
":. c #536687",
">. c #556684",
",. c #546785",
"<. c #566785",
"1. c #546787",
"2. c #556886",
"3. c #576886",
"4. c #566987",
"5. c #586987",
"6. c #536788",
"7. c #546788",
"8. c #516888",
"9. c #556888",
"0. c #546988",
"q. c #546889",
"w. c #556889",
"e. c #566989",
"r. c #56698A",
"t. c #546B8B",
"y. c #576A8A",
"u. c #566A8B",
"i. c #576A8B",
"p. c #576B8C",
"a. c #596A88",
"s. c #59698A",
"d. c #586B8B",
"f. c #5A6A8B",
"g. c #5B6C8A",
"h. c #5A6D8B",
"j. c #5C6D8B",
"k. c #586B8C",
"l. c #5B6B8C",
"z. c #596C8C",
"x. c #596C8D",
"c. c #5A6D8E",
"v. c #5B6E8F",
"b. c #5C6C8D",
"n. c #5E6F8D",
"m. c #5D6D8E",
"M. c #5F708E",
"N. c #5B6F90",
"B. c #5C6F90",
"V. c #5A7191",
"C. c #5D7090",
"Z. c #5C7091",
"A. c #5D7091",
"S. c #5E7191",
"D. c #5D7192",
"F. c #5E7192",
"G. c #5F7293",
"H. c #60718F",
"J. c #607391",
"K. c #617492",
"L. c #607394",
"P. c #637394",
"I. c #617495",
"U. c #627596",
"Y. c #637696",
"T. c #637697",
"R. c #647495",
"E. c #667795",
"W. c #657596",
"Q. c #637798",
"!. c #647798",
"~. c #657899",
"^. c #667999",
"/. c #677A98",
"(. c #66799A",
"). c #677A9B",
"_. c #657C9C",
"`. c #687B9C",
"'. c #697C9D",
"]. c #6A7D9E",
"[. c #6A7E9F",
"{. c #6B7E9F",
"}. c #6C7FA0",
"|. c #6980A0",
" X c #6D80A1",
".X c #6E81A2",
"XX c #6E82A3",
"oX c #6F82A3",
"OX c #7083A4",
"+X c #7184A4",
"@X c #7184A5",
"#X c #7185A6",
"$X c #7285A6",
"%X c #7386A7",
"&X c #7487A8",
"*X c #7588A9",
"=X c #7689AA",
"-X c #778AAB",
";X c #788BAC",
":X c #798CAD",
">X c #7A8DAE",
",X c #7B8EAE",
"<X c #7A8EAF",
"1X c #7B8EAF",
"2X c #7C8FB0",
"3X c #7D90B1",
"4X c #7E91B2",
"5X c #7F92B3",
"6X c #8093B3",
"7X c #8093B4",
"8X c #8194B5",
"9X c #8295B6",
"0X c #8396B7",
"qX c #8497B8",
"wX c #8598B9",
"eX c #8699BA",
"rX c #879ABB",
"tX c #889BBB",
"yX c #889BBC",
"uX c #899CBD",
"iX c #8A9DBE",
"pX c #8B9EBF",
"aX c #8C9FC0",
"sX c #8DA0C1",
"dX c #8EA1C2",
"fX c #8FA2C3",
"gX c #90A3C4",
"hX c #91A4C5",
"jX c #92A5C6",
"kX c #93A6C7",
"lX c #95A8C9",
"zX c #96A9CA",
"xX c #99ACCD",
"cX c #9AADCE",
"vX c #9EB1D2",
/* pixels */
"0Xx.G.x.L $.k.) wX(.x.U.x.B.$.L @X7X$.U.i.i.$.$.L zX{.$.k.k.) x.N ;XqX$.L.@.7.k.7.B.gX}.7.k.k.~ k.@.",
"{.$.) ) 7.U.k.i OXx.) $.@.$.i.@.x.oX) i.) 7.k.k.J 1X$.) i.k.) k.~ B.U.J x.@.7.7.i.L }.$.~ k.L.7.i.@.",
"i.!.G.i.x.x.$.N G.B.G.k.x.i.$.h N {.x.G.k.x.i.L h U.$.U.B.G.i.i.J L B.G.L.i.x.$.) g (.x.k.B.!.7.J n ",
"8 ) q 5 N 5 > q i n h 5 J N i - - N g 8 i N i : # h N L > i g g : > ~ J 2 8 ~ h : & @.J 8 - n g 8 5 ",
"U.L.5 7.wXoXG.U.(.U.B.N oXOX*X}.L.!.x.N B.*X&X}.L.{.U.i.h OX;XoX!.!.}.G.i !.qX@X{.B.`.x.@.) ;X*X{.`.",
"G.x.5 U.aX(.x.U.x.x.x.~ 3XoX{.G.L.B.L.~ {.1X{.G.G.U.x.$.7.pX*Xk.L.B.B.x.L ;XqXB.!.k.k.7.B.L.qXOXk.k.",
") x.q G.@XN ) i.~ ) k.J 3Xx.) N i.L G.L {.`.@.N L @.$.$.i.3Xx.L ) @.) B.@.OX(.J ) ~ @.@.x.x.;X~ @.@.",
"x.x.> ) `.i.U.$.G.i.$.q OX) $.(.G.L k.i B.G.i.U.k.x.k.L N U.) !.L.B.@.x.g x.G.L.i.L.L.@.L J OX@.7.i.",
"i - o i J i J J i h - > ) J 8 ) h i > - q h h N J q q @ 5 N 5 ~ ~ g q 5 2 g J h n g $.8 & - ~ y ~ n ",
"{.oXU.G.G.x.k.: @.oX(.7.x.G.) ~ n (.{.U.U.G.G.7.8 x.oXx.G.G.$.x.: i.oX(.B.L.L.G.) 8 B.`.}.B.G.$.~ n ",
"0X1X(.x.$.G.(.q 7XwX1XU.B.(.(.x.x.pX1XU.x.x.(.7.) aXwX`.(.(.!.(.g &XqX`.k.x.G.B.`.$.yX3XOXG.L.}.U.x.",
"&XG.) i.~ ) U.~ 3XG.) L L ~ ~ N `.0Xx.~ $.$.!.) ~ 3Xx.h ) L $.) 7.@XOX7.@.k.$.@.$.~ 3X7.i n ) @.7.~ ",
"x.7.@.U.k.) 7.i {.k.x.!.U.G.7.J $.U.) $.G.i.x.L n OXx.x.{.x.G.i.y ~ k.x.L.L.k.7.@.g `.k.L.}.`.@.7.L ",
"N i.J N ~ ~ L > q L ) g i N N 5 h ~ ) L ) J h L # L L J h i N n 5 q ) i.N J @.~ g & g ~ ~ q L g y 5 ",
"~ i.2 8 x.i.$.) ~ G.~ y @.G.x.7.$.) x.i n G.N $.$.$.x.N q i.G.@.i.J k.~ - g L.) B.7.7.k.n O U.L.k.$.",
"!.G.y L.zX1XU.&X{.U.J x.pXpX{.(.U.i.}.L {.vX@XoX}.x.{.$.$.fXyXx.}.x.{.!.L &XxXoXL.OXB.L.B.7.cX*X`.U.",
"@.x.q (.1XJ ) 7.) x.n G.3XL.~ $.) L k.i.`.@X@.i.) ) B.@.(.1Xi.L @.@.i.i.n *X`.~ ) i.~ B.J OXOX@.$.| ",
"$.k.5 k.{.~ i.x.G.!.n L {.i.$.B.{.x.$.h k.oX$.$.G.B.x.h ) {.k.B.L.7.i.7.g !.B.k.B.L.k.k.y x.`.B.7.[ ",
"N L # h i.L i.) J 7.8 q ) ~ @.i.@.) N > h x.) ) L $.) 5 y @.~ i.@.n ~ ~ 5 J J $.@.J J ~ : N @.@.k.7.",
"$.7.q N $.L L 5 y $.h h @.L L i - ) k.N h ~ L L # J 7.N J ) J L : y 7.) g J n @.n 2 J $.n ) L n N p ",
"fXwX@XoXoX{.U.N 1XpX*XoXOX`.(.$.U.wXwX@X(.(.(.(.$.*X0X;X@XoX{.{.@.}.aXOX}.&X}.}.!.i.7XqX&XOX`.!.G.7.",
"OXU.i.) ~ $.$.i &X&Xx.) ) L i.n {.*XB.~ ) $.i.~ i.@X`.x.$.L $.$.n !.1X@.7.k.@.~ ) N 7XoX@.J J 7.6.J ",
"!.@.$.i.$.G.B.) oX!.$.i.i.i.U.) G.{.) @.B.k.G.i.$.@XU.k.$.) G.i.~ L.&X~ B.k.@.i.7.N 7XL.@.@.@.B.7.~ ",
"B.J k.x.) $.L 5 i.$.L x.G.$.$.2 i i.) G.L.L ) J > x.) i.x.$.B.) q n B.n !.7.~ k.J & L.n @.G.k.) J i ",
"i $.# & ) N q 5 > $.L . g h g i 5 ) L > # $.5 N g # $.i # h q h h - J n & y J h J y 2 @.g & ~ n n n ",
"{.U.q i.pX0X@X@XoXoXx.) wXwX*XOXoXoXG.) oXjXoXoXoXB.&Xi.$.0X2X*X&X`.OX(.) ;XqX;X!.}.{.{.) @.3X2X}.}.",
"$.~ q L.3Xx.L k.7.) ) 7.3X!.$.k.) $.7.J oX&Xx.$.) L G.n ) 3X}.@.J ) k.7.g *XOXB.@.k.k.i.@.(.7XB.6.7.",
"k.i.) {.*X) L x.i.$.G.G.*Xx.$.x.i.x.L.) @X!.k.i.x.x.U.) B.2X(.L @.7.k.B.J &X!.7.k.k.i.@.@.}.&XJ @.@.",
"i.N # g x.x.U.G.x.L n 5 i.k.B.i.L.k.h > B.i.k.i.x.i.) i N x.i.i.!.k.$.L 8 k.) 7.G.$.k.J > h i.7.B.x.",
"i i - 8 N J ) q i i J 2 h n ~ q : L i > J i N N > n h 5 y i h @.i 8 N q q g y J J 2 ~ L 5 y N ~ J n ",
"*X*XOX@X(.x.x.N {.oX0XoX{.x.U.$.N 3X1X@X(.G.U.(.N @X1X{.{.U.U.(.n k.7XU.@X!.!.U.$.N }.&X`.OXL.k.7.~ ",
"jX&X) i.k.k.G.N fXoXU.$.B.x.L.J {.jX(.x.@.B.x.i.L 0X3XB.7.i.x.x.) `.jXi.`.7.G.7.7.x.yX2Xi.k.i.k.L.p.",
"oXk.h $.i.$.x.L 0X) @.) $.$.U.h B.}.J k.@.7.7.k.~ *Xn k.i.J L.x.~ !.OXJ 7.@.B.) ~ 7.1X@.N L.g B.p.} ",
"$.U.x.G.U.$.) q i.i.`.G.B.$.x.i L `.7.!.B.k.@.J g `.7.!.k.7.B.@.y @.`.k.G.7.L.i.J h L.k.k.(.@.B.^ A ",
"q $.y 5 N h y - 8 N ) > h h L q 5 @.y y i N n y : n J J 2 ~ J y 8 2 ~ J g 8 L n g : g ~ p p N N 8 ; ",
"B.L.q g {.{.L.B.G.B.~ q {.{.(.L.i.!.@.n @.}.}.!.k.i.L.@.y OX{.L.`.i.B.i.h 7.OXL.L.k.k.!.Z N oX!.}.(.",
"G.x.h U.fX;XG.U.U.L.$.i.fX1XU.L.x.U.L.i.OXqX&XG.`.x.(.x.) pX*X`.`.G.L.x.~ *XyX}.L.(.B.!.6.G.gX@XV.V.",
") ~ g U.*X@.n i.$.$.L $.1Xk.N 7.7.@.7.n (.OXk.N ) J 7.7.@.1XB.L n @.7.$.~ @XoXJ @.7.n ) [ U.2X[ 6.=.",
"L.$.N B.U.) i.U.G.x.i.L (.7.i.!.`.7.k.g G.!.k.x.k.B.i.7.7.}.7.7.7.U.k.x.~ `.B.@.G.G.7.7.p.G.Q.6.i.t.",
"N > o y L N @.N h h y # L J L J ~ q N # N J g L @.k.8 : : g y 7.@.7.y 8 # g y 7.n ~ ~ h 8 - 8 i.L A ",
"i.U.7.(.x.L L.- q (.U.G.L G.) ) @ (.L.G.(.$.7.7.O [ {.L.x.x.i.i.y 8 k.B.(.7.B.p.[ . L.U.x.G.i.[ ^ a ",
"jX3XG.`.!.B.{.N pXqX(.(.k.{.B.7.`.yXOXL.L.k.Q.Q.k.pX1XU.{.U.G.{.7.OXaX;XOXk.L.N.B.~ aX2X`.(.L.N.G.=.",
"1XB.~ @.$.7.i.N 3XU.) i.) x.$.L `.@XB.[ L @.B.$.Z wXG.N G.@.) x.J }.2Xk.@.~ i.>.$.$.3Xp.~ @.7.6.N.6.",
"k.@.B.k.7.i.E E G.$.i.G.i.i.i.~ 7.B.B.k.7.B.L.~ 2 oXp.>.U.$.k.$.g G.L.~ p.G.G.x.[ ~ (.~ 7.k.p.6.~ m ",
") 7.x.L L ) q < ) $.k.~ N J N 2 h Z [ J n @.E 8 5 @.$.6.h N x.i 8 J ~ 6.7.7.L n 8 8 @.~ p.~ L J t 3 ",
"$.~ 5 5 $.x.@.N ) @.h - ) i.$.N J J ~ 8 g i.) E L h [ n - ^ (.E n J ~ @.8 J 7.7.L g 6.Z g 5 @.k.| ^ ",
"T.G.y L.tX1X;X*XU.Q.7.L wX0X@X*X(.`.(.>.oXrXOX&X}.k.}.6.p.qX1X%X}.!.L.!.g OXpX;X&X(.oXN.@.p.yX2XoX|.",
"i.i.7 OXpX) L ) @.B.7.o.fXT.c $.[ i.7.n oX6X@.~ k.~ L.c U.tX$.2.7.E @.L.g 1X7Xc 7.J N.>.$.(.rX[ 8.] ",
"s.H w >.T.g.m.<.s.X. .v R.j.g.<.7.>.i.v i./.2.3.2.2.V.W ) K.t.3.s.s.b.<.c E.n.g.g.X.m.g.D X.R.s.i.3.",
">.b 1 Q H.>.5.X.<.Q G s n.<.5.X.3.o.Q i Q S.] 2.2.o.3.f x h.3.&.>.>.5.Q e n.s.<.<.Q s.>.d G n.<.i.7."
};
